<svg width="452" height="469" viewBox="0 0 452 469" fill="none" xmlns="http://www.w3.org/2000/svg">
<path d="M102.617 163.984L85.4844 175.228L263.913 447.454L281.046 436.21L102.617 163.984Z" fill="#E6E6E6"/>
<path d="M61.8287 61.5377L101.468 122.015C102.236 123.187 102.507 124.615 102.222 125.986C101.938 127.357 101.12 128.559 99.9498 129.327C98.7794 130.096 97.3519 130.367 95.9816 130.082C94.6112 129.797 93.41 128.979 92.6424 127.808L47.0719 58.2815C40.8863 57.7646 34.669 58.7863 28.9736 61.2557L78.6247 137.008C79.3918 138.179 79.6627 139.607 79.3777 140.978C79.0928 142.349 78.2753 143.551 77.1052 144.319C75.935 145.086 74.5079 145.358 73.1378 145.073C71.7676 144.789 70.5666 143.971 69.7987 142.8L20.1476 67.0482C15.6149 71.2915 12.2012 76.5907 10.2105 82.4737L55.781 152C56.5481 153.171 56.819 154.599 56.534 155.97C56.2491 157.341 55.4317 158.543 54.2615 159.311C53.0913 160.079 51.6643 160.35 50.2941 160.066C48.9239 159.781 47.7229 158.963 46.955 157.793L7.3154 97.3149C6.29729 114.178 11.7916 134.164 23.8328 152.535C46.2119 186.679 82.7168 202.306 105.369 187.44C128.02 172.573 128.242 132.843 105.862 98.6992C93.8212 80.328 77.6906 67.322 61.8287 61.5377Z" fill="#E6E6E6"/>
<path d="M179.434 126.742H158.945V452.297H179.434V126.742Z" fill="#E6E6E6"/>
<path d="M168.879 147.866C195.968 147.866 217.929 114.765 217.929 73.9331C217.929 33.101 195.968 0 168.879 0C141.79 0 119.83 33.101 119.83 73.9331C119.83 114.765 141.79 147.866 168.879 147.866Z" fill="#E6E6E6"/>
<path d="M168.879 134.764C191.168 134.764 209.236 107.529 209.236 73.9331C209.236 40.337 191.168 13.1021 168.879 13.1021C146.59 13.1021 128.522 40.337 128.522 73.9331C128.522 107.529 146.59 134.764 168.879 134.764Z" fill="#CCCCCC"/>
<path d="M226 469C350.816 469 452 463.191 452 456.024C452 448.858 350.816 443.049 226 443.049C101.184 443.049 0 448.858 0 456.024C0 463.191 101.184 469 226 469Z" fill="#E6E6E6"/>
<path d="M359.655 455.834C274.96 440.557 188.216 440.557 103.521 455.834C102.175 456.078 100.793 456.023 99.4706 455.674C98.1486 455.325 96.9192 454.69 95.8693 453.813C94.8194 452.937 93.9745 451.841 93.3942 450.602C92.8139 449.363 92.5124 448.012 92.511 446.643V330.524H370.665V446.643C370.663 448.012 370.362 449.363 369.782 450.602C369.201 451.841 368.356 452.937 367.307 453.813C366.257 454.69 365.027 455.325 363.705 455.674C362.383 456.023 361.001 456.078 359.655 455.834Z" fill="#BC412B"/>
<path d="M345.209 244.787C338.786 244.781 332.408 245.849 326.337 247.947C317.482 228.729 303.333 212.437 285.551 200.983C267.768 189.529 247.089 183.388 225.941 183.281C204.793 183.174 184.053 189.105 166.155 200.379C148.257 211.653 133.945 227.801 124.896 246.928C115.987 244.427 106.607 244.106 97.547 245.99C88.4871 247.875 80.0125 251.911 72.837 257.758C65.6616 263.605 59.9955 271.092 56.3161 279.588C52.6366 288.084 51.0516 297.341 51.6944 306.578C52.3373 315.815 55.1893 324.763 60.0101 332.666C64.831 340.57 71.4794 347.199 79.3955 351.994C87.3116 356.79 96.2635 359.611 105.497 360.221C114.731 360.831 123.975 359.211 132.452 355.498C142.641 371.035 156.558 383.769 172.931 392.538C189.304 401.307 207.612 405.831 226.182 405.697C244.753 405.564 262.994 400.776 279.239 391.772C295.484 382.769 309.216 369.835 319.181 354.154C326.966 358.087 335.539 360.204 344.259 360.347C352.978 360.49 361.617 358.655 369.526 354.979C377.436 351.304 384.41 345.884 389.927 339.125C395.444 332.367 399.359 324.446 401.38 315.957C403.4 307.468 403.473 298.632 401.592 290.111C399.712 281.59 395.927 273.605 390.522 266.757C385.117 259.909 378.232 254.375 370.385 250.57C362.537 246.765 353.929 244.788 345.209 244.787Z" fill="#BC412B"/>
<path d="M114.863 294.49H113.621C113.579 277.947 117.237 261.604 124.329 246.66L125.452 247.192C118.439 261.97 114.82 278.131 114.863 294.49Z" fill="#37371F"/>
<path d="M337.137 294.49H335.896C335.934 278.508 332.481 262.71 325.779 248.203L326.907 247.683C333.685 262.353 337.176 278.328 337.137 294.49Z" fill="#37371F"/>
<path d="M92.6608 384.558L92.3612 383.352C92.7117 383.265 128.002 374.592 179.719 370.289C227.453 366.317 299.354 365.359 370.816 383.353L370.513 384.558C299.226 366.609 227.482 367.563 179.848 371.525C128.223 375.819 93.0103 384.471 92.6608 384.558Z" fill="#37371F"/>
<path d="M92.6608 401.333L92.3612 400.127C92.7117 400.04 128.002 391.367 179.719 387.063C227.453 383.092 299.354 382.134 370.816 400.127L370.513 401.332C299.226 383.384 227.482 384.338 179.848 388.3C128.223 392.594 93.0103 401.246 92.6608 401.333Z" fill="#37371F"/>
<path d="M92.6608 418.108L92.3612 416.901C92.7117 416.815 128.002 408.142 179.719 403.838C227.453 399.866 299.354 398.908 370.816 416.902L370.513 418.107C299.226 400.158 227.482 401.113 179.848 405.075C128.223 409.368 93.0103 418.021 92.6608 418.108Z" fill="#37371F"/>
<path d="M321.16 326.894L306.116 321.775L320.559 248.011L310.629 247.107C300.947 254.541 288.054 257.455 271.515 255.237L297.992 295.28L284.491 304.817L241.422 253.122C239.481 250.792 238.418 247.855 238.418 244.821C238.418 242.009 239.332 239.272 241.022 237.025C242.712 234.778 245.086 233.142 247.787 232.364L293.78 219.107L347.638 225.129C355.781 237.551 356.099 246.19 343.704 248.682L321.16 326.894Z" fill="black"/>
<path d="M305.762 355.589C304.207 355.491 302.697 355.027 301.355 354.235C300.013 353.443 298.876 352.345 298.038 351.031C297.199 349.717 296.682 348.223 296.528 346.672C296.375 345.12 296.589 343.554 297.154 342.101L304.633 322.856C308.432 315.655 313.646 316.556 319.802 322.856L322.811 331.688C323.059 332.415 323.157 333.185 323.1 333.951C323.043 334.717 322.832 335.464 322.479 336.146L315.189 350.249C314.305 351.959 312.944 353.374 311.27 354.323C309.596 355.271 307.682 355.711 305.762 355.589Z" fill="black"/>
<path d="M286.32 330.388C284.765 330.29 283.255 329.826 281.912 329.034C280.57 328.242 279.434 327.144 278.595 325.83C277.756 324.516 277.239 323.022 277.085 321.471C276.932 319.919 277.146 318.353 277.711 316.9L285.19 297.655C288.989 290.454 294.203 291.355 300.36 297.655L303.369 306.487C303.616 307.214 303.715 307.984 303.658 308.75C303.601 309.516 303.389 310.263 303.037 310.945L295.746 325.048C294.863 326.758 293.501 328.173 291.827 329.122C290.153 330.07 288.239 330.51 286.32 330.388Z" fill="black"/>
<path d="M295.886 148.654C305.192 148.654 312.736 141.106 312.736 131.794C312.736 122.482 305.192 114.933 295.886 114.933C286.58 114.933 279.037 122.482 279.037 131.794C279.037 141.106 286.58 148.654 295.886 148.654Z" fill="#FFB9B9"/>
<path d="M322.063 155.579L298.895 167.622L294.081 145.945L310.027 136.009L322.063 155.579Z" fill="#FFB9B9"/>
<path d="M350.045 228.139C326.927 221.152 305.951 217.532 290.771 223.021C296.003 208.291 286.346 185.799 275.727 162.805C280.309 156.812 287.614 154.49 295.886 153.472C304.937 160.048 311.247 155.827 316.045 145.644C326.509 145.223 336.593 148.931 346.434 155.278C338.741 179.935 340.126 204.214 350.045 228.139Z" fill="#37371F"/>
<path d="M290.47 226.634C286.82 228.787 283.451 232.414 280.24 236.871C274.815 233.547 270.04 229.764 266.279 225.263C263.646 222.072 261.851 218.275 261.056 214.214C260.262 210.153 260.492 205.958 261.728 202.009L272.01 168.57C272.864 165.793 274.523 163.332 276.777 161.5L278.134 160.396L291.674 185.988L278.134 211.279C279.851 215.886 284.911 221.206 290.47 226.634Z" fill="#37371F"/>
<path d="M295.131 252.129C293.903 252.689 292.562 252.955 291.214 252.907C289.866 252.859 288.547 252.498 287.363 251.852C286.178 251.206 285.16 250.293 284.389 249.185C283.618 248.077 283.115 246.805 282.92 245.469L280.682 230.14L288.505 225.924L298.433 238.93C299.226 239.969 299.775 241.173 300.039 242.454C300.303 243.734 300.276 245.057 299.958 246.325C299.641 247.594 299.042 248.774 298.206 249.779C297.371 250.783 296.319 251.587 295.131 252.129Z" fill="#FFB9B9"/>
<path d="M312.886 131.056L310.009 131.142L302.029 119.83C291.803 120.887 283.424 125.333 276.334 132.143L275.615 127.346C274.929 122.773 276.021 118.11 278.666 114.317C281.311 110.525 285.308 107.89 289.835 106.956H289.835C292.212 106.466 294.664 106.46 297.044 106.939C299.424 107.417 301.684 108.371 303.687 109.743C305.691 111.115 307.397 112.877 308.705 114.923C310.013 116.97 310.896 119.259 311.3 121.654L312.886 131.056Z" fill="black"/>
<path d="M280.531 236.877C279.971 235.648 279.705 234.307 279.753 232.958C279.801 231.608 280.162 230.289 280.808 229.104C281.453 227.918 282.366 226.9 283.473 226.128C284.579 225.356 285.851 224.853 287.186 224.658L302.506 222.419L306.718 230.247L293.721 240.182C292.683 240.975 291.479 241.525 290.2 241.789C288.92 242.053 287.598 242.025 286.33 241.708C285.063 241.39 283.883 240.791 282.879 239.955C281.875 239.118 281.073 238.066 280.531 236.877Z" fill="#FFB9B9"/>
<path d="M352.964 222.932C338.388 224.065 322.475 228.613 305.815 235.064C305.608 230.116 303.815 225.365 300.7 221.516C315.831 217.528 329.561 212.848 338.01 205.558L332.895 167.02L344.027 154.375L345.948 155.377C347.542 156.207 348.945 157.362 350.065 158.769C351.185 160.176 351.997 161.802 352.448 163.543C357.148 181.839 359.236 199.369 357.801 215.866C357.986 217.431 357.598 219.009 356.708 220.308C355.819 221.608 354.488 222.54 352.964 222.932Z" fill="#37371F"/>
</svg>
