<svg width="428" height="309" viewBox="0 0 428 309" fill="none" xmlns="http://www.w3.org/2000/svg">
<g clip-path="url(#clip0)">
<path opacity="0.1" d="M369.437 177.26C355.905 199.344 358.298 229.338 364.096 252.99C366.036 260.909 368.278 269.26 366.552 278.134C364.441 288.984 356.877 297.537 349.238 302.431C335.308 311.36 319.45 311.178 307.966 301.96C298.025 293.993 291.516 280.054 281.377 272.519C264.388 259.907 240.99 267.696 220.635 279.647C206.234 288.097 190.384 298.792 177.141 292.832C167.823 288.639 162.061 276.72 159.39 263.733C158.104 257.464 157.342 250.614 154.354 245.843C152.576 243.007 150.123 241.115 147.58 239.566C124.36 225.442 92.8147 237.468 70.4365 221.459C55.3205 210.645 46.7923 188.221 44.0659 164.213C41.3396 140.205 43.7524 114.487 46.7605 89.1647C48.9114 71.1718 51.8005 51.9039 61.182 37.2332C71.1032 21.715 86.6755 14.738 100.176 16.1279C113.677 17.5177 125.368 26.1618 135.432 36.7184C148.012 49.9121 159.33 66.7845 175.665 70.9857C186.776 73.8486 198.967 70.4274 210.805 68.4713C230.596 65.2006 250.093 66.0321 269.444 67.1448C287.972 68.21 306.616 69.5642 323.859 76.1056C336.062 80.7345 345.4 90.4398 356.778 96.7278C364.195 100.826 372.58 101.313 379.485 106.793C387.99 113.525 395.32 126.038 391.835 141.88C388.522 156.947 376.616 165.544 369.437 177.26Z" fill="#7E9C34"/>
<path d="M116.792 109.803C116.792 109.803 58.4 96.7753 132.698 20.5549C132.698 20.5549 164.723 50.8427 152.977 88.4916C148.254 103.63 133.055 112.975 117.657 109.981L116.792 109.803Z" fill="#7E9C34"/>
<path opacity="0.4" d="M116.792 109.803C115.51 109.518 59.6462 95.4884 132.698 20.5549C132.698 20.5549 164.723 50.8427 152.977 88.4916C148.254 103.63 133.055 112.975 117.657 109.981L116.792 109.803Z" fill="white"/>
<path d="M117.566 110.238C117.566 110.238 148.409 63.878 132.706 20.5588" stroke="#535461" stroke-miterlimit="10"/>
<path d="M357.008 154.821C357.008 154.821 346.944 114.388 362.195 85.601C368.6 73.52 371.144 59.756 369.005 46.2574C367.978 39.8541 366.365 33.5583 364.187 27.4487" stroke="#535461" stroke-width="2" stroke-miterlimit="10"/>
<path d="M373.691 9.24989C373.481 14.1441 363.992 27.9516 363.992 27.9516C363.992 27.9516 355.722 13.3838 355.932 8.48963C356.078 6.17229 357.129 4.00442 358.859 2.45153C360.589 0.898646 362.861 0.0845646 365.185 0.184094C367.51 0.283624 369.703 1.28883 371.294 2.98387C372.884 4.6789 373.745 6.9286 373.691 9.24989Z" fill="#7E9C34"/>
<path d="M387.208 36.9797C384.367 40.9751 368.878 47.4215 368.878 47.4215C368.878 47.4215 369.87 30.7076 372.711 26.7122C373.375 25.7344 374.228 24.8987 375.22 24.2542C376.212 23.6098 377.323 23.1695 378.488 22.9593C379.653 22.7491 380.848 22.7731 382.004 23.03C383.159 23.2869 384.252 23.7714 385.217 24.4552C386.182 25.1391 387.001 26.0083 387.625 27.0121C388.249 28.0158 388.665 29.1338 388.851 30.3004C389.036 31.4671 388.985 32.6588 388.703 33.8058C388.42 34.9528 387.91 36.0319 387.204 36.9797H387.208Z" fill="#7E9C34"/>
<path d="M384.577 83.2688C380.104 85.2843 363.473 83.051 363.473 83.051C363.473 83.051 372.787 69.1247 377.259 67.1052C379.399 66.1895 381.813 66.148 383.983 66.9894C386.153 67.8309 387.906 69.4883 388.864 71.6053C389.823 73.7224 389.911 76.1301 389.109 78.3111C388.307 80.492 386.68 82.2721 384.577 83.2688Z" fill="#7E9C34"/>
<path d="M374.684 117.845C370.616 120.585 353.845 121.187 353.845 121.187C353.845 121.187 360.667 105.891 364.735 103.146C366.689 101.88 369.063 101.429 371.346 101.892C373.63 102.355 375.64 103.693 376.944 105.62C378.248 107.547 378.742 109.907 378.319 112.194C377.896 114.48 376.591 116.509 374.684 117.845Z" fill="#7E9C34"/>
<path d="M350.194 47.5878C353.563 51.1515 369.802 55.3805 369.802 55.3805C369.802 55.3805 366.485 38.9675 363.115 35.4077C361.485 33.749 359.267 32.795 356.939 32.7508C354.61 32.7066 352.358 33.5757 350.665 35.1714C348.972 36.767 347.975 38.9617 347.886 41.2836C347.798 43.6055 348.627 45.8691 350.194 47.5878Z" fill="#7E9C34"/>
<path d="M339.138 88.1551C343.424 90.5309 360.171 89.7389 360.171 89.7389C360.171 89.7389 352.103 75.0642 347.813 72.6765C345.761 71.5951 343.366 71.3572 341.141 72.0138C338.915 72.6703 337.035 74.1693 335.903 76.1903C334.77 78.2114 334.474 80.5943 335.079 82.8299C335.683 85.0656 337.14 86.9767 339.138 88.1551Z" fill="#7E9C34"/>
<path d="M333.816 129.071C337.634 132.147 354.29 134.179 354.29 134.179C354.29 134.179 348.805 118.34 344.987 115.275C343.149 113.852 340.824 113.205 338.513 113.473C336.201 113.741 334.087 114.903 332.625 116.709C331.162 118.515 330.468 120.822 330.691 123.133C330.913 125.444 332.036 127.576 333.816 129.071Z" fill="#7E9C34"/>
<path d="M373.691 9.24989C373.481 14.1441 363.992 27.9516 363.992 27.9516C363.992 27.9516 355.722 13.3838 355.932 8.48963C356.078 6.17229 357.129 4.00442 358.859 2.45153C360.589 0.898646 362.861 0.0845646 365.185 0.184094C367.51 0.283624 369.703 1.28883 371.294 2.98387C372.884 4.6789 373.745 6.9286 373.691 9.24989Z" fill="#BC412B"/>
<path d="M387.208 36.9797C384.367 40.9751 368.878 47.4215 368.878 47.4215C368.878 47.4215 369.87 30.7076 372.711 26.7122C373.375 25.7344 374.228 24.8987 375.22 24.2542C376.212 23.6098 377.323 23.1695 378.488 22.9593C379.653 22.7491 380.848 22.7731 382.004 23.03C383.159 23.2869 384.252 23.7714 385.217 24.4552C386.182 25.1391 387.001 26.0083 387.625 27.0121C388.249 28.0158 388.665 29.1338 388.851 30.3004C389.036 31.4671 388.985 32.6588 388.703 33.8058C388.42 34.9528 387.91 36.0319 387.204 36.9797H387.208Z" fill="#BC412B"/>
<path d="M384.577 83.2688C380.104 85.2843 363.473 83.051 363.473 83.051C363.473 83.051 372.787 69.1247 377.259 67.1052C379.399 66.1895 381.813 66.148 383.983 66.9894C386.153 67.8309 387.906 69.4883 388.864 71.6053C389.823 73.7224 389.911 76.1301 389.109 78.3111C388.307 80.492 386.68 82.2721 384.577 83.2688Z" fill="#BC412B"/>
<path d="M374.684 117.845C370.616 120.585 353.845 121.187 353.845 121.187C353.845 121.187 360.667 105.891 364.735 103.146C366.689 101.88 369.063 101.429 371.346 101.892C373.63 102.355 375.64 103.693 376.944 105.62C378.248 107.547 378.742 109.907 378.319 112.194C377.896 114.48 376.591 116.509 374.684 117.845Z" fill="#BC412B"/>
<path d="M350.194 47.5878C353.563 51.1515 369.802 55.3805 369.802 55.3805C369.802 55.3805 366.485 38.9675 363.115 35.4077C361.485 33.749 359.267 32.795 356.939 32.7508C354.61 32.7066 352.358 33.5757 350.665 35.1714C348.972 36.767 347.975 38.9617 347.886 41.2836C347.798 43.6055 348.627 45.8691 350.194 47.5878Z" fill="#BC412B"/>
<path d="M339.138 88.1551C343.424 90.5309 360.171 89.7389 360.171 89.7389C360.171 89.7389 352.103 75.0642 347.813 72.6765C345.761 71.5951 343.366 71.3572 341.141 72.0138C338.915 72.6703 337.035 74.1693 335.903 76.1903C334.77 78.2114 334.474 80.5943 335.079 82.8299C335.683 85.0656 337.14 86.9767 339.138 88.1551Z" fill="#BC412B"/>
<path d="M333.816 129.071C337.634 132.147 354.29 134.179 354.29 134.179C354.29 134.179 348.805 118.34 344.987 115.275C343.149 113.852 340.824 113.205 338.513 113.473C336.201 113.741 334.087 114.903 332.625 116.709C331.162 118.515 330.468 120.822 330.691 123.133C330.913 125.444 332.036 127.576 333.816 129.071Z" fill="#BC412B"/>
<path d="M320.165 128.706C320.165 128.706 362.373 93.4135 371.755 75.6146C381.136 57.8157 393.093 42.4837 393.093 42.4837" stroke="#535461" stroke-width="2" stroke-miterlimit="10"/>
<path d="M387.557 82.263L369.302 78.1528C369.302 78.1528 373.604 97.3732 387.557 82.263Z" fill="#7E9C34"/>
<path d="M359.643 62.6347L370.152 78.3389C370.152 78.3389 349.619 79.8278 359.643 62.6347Z" fill="#7E9C34"/>
<path d="M394.74 67.5012L378.049 64.5789C378.049 64.5789 388.537 80.493 394.74 67.5012Z" fill="#7E9C34"/>
<path d="M370.056 53.4719L378.295 64.2186C378.295 64.2186 363.711 65.5886 370.056 53.4719Z" fill="#7E9C34"/>
<path d="M386.684 51.3297C386.684 51.3297 400.911 52.0069 402.558 53.3611C404.205 54.7153 400.439 62.6585 395.018 61.3637C389.597 60.0688 386.684 51.3297 386.684 51.3297Z" fill="#7E9C34"/>
<path d="M381.001 38.6547C381.001 38.6547 386.807 49.2113 386.589 51.2189C386.371 53.2264 377.743 55.4835 375.997 47.8729C374.251 40.2623 381.001 38.6547 381.001 38.6547Z" fill="#7E9C34"/>
<path d="M400.04 45.4996C400.701 43.4148 399.544 41.1895 397.454 40.5293C395.365 39.8692 393.135 41.0241 392.473 43.109C391.811 45.1939 392.969 47.4191 395.058 48.0793C397.148 48.7395 399.378 47.5845 400.04 45.4996Z" fill="#EA9010"/>
<path d="M393.83 41.4611C394.491 39.3762 393.334 37.1509 391.244 36.4908C389.155 35.8306 386.925 36.9856 386.263 39.0704C385.601 41.1553 386.759 43.3806 388.848 44.0407C390.938 44.7009 393.168 43.546 393.83 41.4611Z" fill="#EA9010"/>
<path d="M130.507 137.766C130.507 137.766 147.572 125.095 126.142 80.7464C126.142 80.7464 97.569 45.505 126.142 12.2434C126.142 12.2434 63.8369 13.8273 65.0275 71.6391C66.218 129.451 96.18 137.766 96.18 137.766H130.507Z" fill="#7E9C34"/>
<path d="M114.57 137.766C114.57 137.766 110.272 107.276 98.7634 88.6658C96.4904 84.9018 94.8559 80.7891 93.9258 76.4937C90.0804 59.6134 95.5648 41.961 107.99 29.88L126.146 12.2315" stroke="#535461" stroke-width="2" stroke-miterlimit="10"/>
<path d="M166.045 35.9819C166.045 35.9819 169.966 41.0978 164.235 48.8193C158.505 56.5407 153.782 63.0742 155.691 67.8734C155.691 67.8734 164.335 53.5313 171.371 53.3294C178.407 53.1274 173.783 44.6062 166.045 35.9819Z" fill="#7E9C34"/>
<path opacity="0.1" d="M166.045 35.9819C166.384 36.4763 166.651 37.0163 166.839 37.5856C173.704 45.6317 177.359 53.1433 170.763 53.3333C164.616 53.5076 157.243 64.476 155.477 67.2438C155.535 67.4574 155.605 67.6676 155.687 67.8734C155.687 67.8734 164.331 53.5313 171.367 53.3294C178.403 53.1274 173.783 44.6062 166.045 35.9819Z" fill="black"/>
<path d="M173.331 42.4996C173.331 44.3012 173.129 45.7584 172.879 45.7584C172.629 45.7584 172.426 44.2973 172.426 42.4996C172.426 40.7019 172.68 41.5453 172.93 41.5453C173.18 41.5453 173.331 40.7019 173.331 42.4996Z" fill="#EA9010"/>
<path d="M175.831 44.6497C174.244 45.5129 172.867 46.0317 172.748 45.8139C172.629 45.5961 173.815 44.721 175.399 43.8578C176.982 42.9946 176.359 43.6241 176.478 43.8578C176.597 44.0914 177.415 43.7865 175.831 44.6497Z" fill="#EA9010"/>
<path d="M145.345 35.9819C145.345 35.9819 141.425 41.0978 147.155 48.8193C152.885 56.5407 157.608 63.0742 155.699 67.8734C155.699 67.8734 147.056 53.5313 140.02 53.3294C132.984 53.1274 137.599 44.6062 145.345 35.9819Z" fill="#7E9C34"/>
<path opacity="0.1" d="M145.345 35.9819C145.006 36.4763 144.739 37.0163 144.552 37.5856C137.686 45.6317 134.031 53.1433 140.627 53.3333C146.774 53.5076 154.147 64.476 155.913 67.2438C155.855 67.4574 155.785 67.6676 155.703 67.8734C155.703 67.8734 147.048 53.5274 140.012 53.3333C132.976 53.1393 137.599 44.6062 145.345 35.9819Z" fill="black"/>
<path d="M138.051 42.4996C138.051 44.3012 138.254 45.7584 138.504 45.7584C138.754 45.7584 138.956 44.2973 138.956 42.4996C138.956 40.7019 138.702 41.5453 138.452 41.5453C138.202 41.5453 138.051 40.7019 138.051 42.4996Z" fill="#EA9010"/>
<path d="M135.551 44.6497C137.139 45.5129 138.516 46.0317 138.635 45.8139C138.754 45.5961 137.567 44.721 135.984 43.8578C134.4 42.9946 135.023 43.6241 134.904 43.8578C134.785 44.0914 133.968 43.7865 135.551 44.6497Z" fill="#EA9010"/>
<path d="M428 255.714L393.232 103.075H380.315C379.799 97.2426 379.454 91.5921 379.323 86.2702C379.323 86.2702 332.495 96.4942 295.151 66.9151C257.808 37.3361 213.905 69.4731 213.905 69.4731L213.734 69.3504V69.291V69.3662C210.686 67.2121 168.628 38.4527 132.67 66.9389C95.3426 96.5179 48.4987 86.294 48.4987 86.294C48.3678 91.6831 48.0185 97.3812 47.4907 103.269H35.5059L0 256.265C0 256.265 144.333 261.658 194.912 256.684C196.725 260.509 204.543 263.384 213.909 263.384C224.433 263.384 232.993 259.753 233.291 255.227C272.662 258.217 357.381 262.996 428 255.714Z" fill="url(#paint0_linear)"/>
<path d="M39.2244 104.418L4.46454 254.229C4.46454 254.229 195.812 261.381 211.222 251.37C211.222 251.37 330.01 263.348 423.535 253.695L389.494 104.243L39.2244 104.418Z" fill="#E2E2EC"/>
<path opacity="0.1" d="M51.0504 109.593L18.6439 249.264C18.6439 249.264 197.043 255.932 211.409 246.599C211.409 246.599 322.157 257.765 409.352 248.765L377.604 109.427L51.0504 109.593Z" fill="black"/>
<path d="M375.878 87.7947C375.878 87.7947 330.01 97.8049 293.461 68.8435C256.911 39.8822 213.909 71.3461 213.909 71.3461C213.909 71.3461 170.91 39.8822 134.361 68.8435C97.811 97.8049 51.9433 87.7947 51.9433 87.7947C50.4988 146.074 23.2791 240.465 23.2791 240.465C23.2791 240.465 73.4445 254.051 139.738 226.523C206.031 198.995 213.913 236.177 213.913 236.177C213.913 236.177 221.794 198.991 288.087 226.523C354.381 254.055 404.546 240.465 404.546 240.465C404.546 240.465 377.311 146.074 375.878 87.7947Z" fill="#F1F2FB"/>
<path opacity="0.1" d="M125.404 237.258C125.404 237.258 185.963 223.672 213.901 243.692C213.901 243.692 240.775 219.38 303.124 238.331" fill="black"/>
<path d="M213.909 261.202C224.398 261.202 232.902 257.52 232.902 252.978C232.902 248.436 224.398 244.754 213.909 244.754C203.419 244.754 194.916 248.436 194.916 252.978C194.916 257.52 203.419 261.202 213.909 261.202Z" fill="#E8EAF8"/>
<path opacity="0.1" d="M213.73 71.1679C213.73 71.1679 227.346 140.174 214.087 237.424L213.73 71.1679Z" fill="black"/>
<path opacity="0.1" d="M65.0632 109.427C65.0632 109.427 93.5846 116.039 118.272 109.427C142.96 102.814 188.288 81.182 203.198 109.427" stroke="black" stroke-width="4" stroke-miterlimit="10"/>
<path opacity="0.1" d="M65.0632 121.583C65.0632 121.583 93.5846 128.196 118.272 121.583C142.96 114.97 196.416 115.327 203.198 121.583" stroke="black" stroke-width="4" stroke-miterlimit="10"/>
<path opacity="0.1" d="M65.0632 143.017C65.0632 143.017 93.5846 149.63 118.272 143.017C142.96 136.404 188.288 114.772 203.198 143.017" stroke="black" stroke-width="4" stroke-miterlimit="10"/>
<path opacity="0.1" d="M65.0632 155.189C65.0632 155.189 93.5846 161.802 118.272 155.189C142.96 148.576 196.416 148.933 203.198 155.189" stroke="black" stroke-width="4" stroke-miterlimit="10"/>
<path opacity="0.1" d="M362.758 109.427C362.758 109.427 334.237 116.039 309.549 109.427C284.861 102.814 239.533 81.182 224.624 109.427" stroke="black" stroke-width="4" stroke-miterlimit="10"/>
<path opacity="0.1" d="M362.758 121.583C362.758 121.583 334.237 128.196 309.549 121.583C284.861 114.97 231.406 115.327 224.624 121.583" stroke="black" stroke-width="4" stroke-miterlimit="10"/>
<path opacity="0.1" d="M362.758 143.017C362.758 143.017 334.237 149.63 309.549 143.017C284.861 136.404 239.533 114.772 224.624 143.017" stroke="black" stroke-width="4" stroke-miterlimit="10"/>
<path opacity="0.1" d="M362.758 155.189C362.758 155.189 334.237 161.802 309.549 155.189C284.861 148.576 231.406 148.933 224.624 155.189" stroke="black" stroke-width="4" stroke-miterlimit="10"/>
<path d="M363.338 283.899C364.528 282.993 365.659 281.92 366.005 280.625C366.181 279.937 366.087 279.208 365.741 278.587C365.394 277.967 364.823 277.503 364.143 277.291C362.433 276.76 360.607 277.722 359.218 278.696C357.829 279.67 356.246 280.783 354.432 280.577C356.31 279.223 357.21 277.013 356.687 275.034C356.598 274.602 356.379 274.208 356.06 273.905C355.111 273.078 353.389 273.434 352.254 274.083C348.638 276.154 347.63 280.15 347.611 283.749C347.246 282.45 347.555 281.1 347.543 279.765C347.531 278.431 347.087 276.958 345.706 276.241C344.822 275.86 343.866 275.678 342.904 275.707C341.281 275.659 339.467 275.79 338.36 276.76C336.983 277.948 337.34 279.979 338.539 281.302C339.737 282.624 341.563 283.456 343.241 284.371C344.523 285.068 345.817 285.879 346.603 286.98C346.703 287.126 346.787 287.283 346.853 287.447H357.04C359.278 286.529 361.393 285.337 363.338 283.899Z" fill="#7E9C34"/>
</g>
<defs>
<linearGradient id="paint0_linear" x1="214" y1="263.38" x2="214" y2="54.4104" gradientUnits="userSpaceOnUse">
<stop stop-color="#808080" stop-opacity="0.25"/>
<stop offset="0.54" stop-color="#808080" stop-opacity="0.12"/>
<stop offset="1" stop-color="#808080" stop-opacity="0.1"/>
</linearGradient>
<clipPath id="clip0">
<rect width="428" height="309" fill="white"/>
</clipPath>
</defs>
</svg>
