<svg width="420" height="233" viewBox="0 0 420 233" fill="none" xmlns="http://www.w3.org/2000/svg">
<path d="M387.798 186.211C387.33 187.22 386.863 188.215 386.398 189.197C385.672 190.722 384.956 192.217 384.248 193.683C383.934 194.333 383.619 194.97 383.313 195.608C379.844 202.696 376.605 208.966 373.855 214.122C371.36 218.797 367.655 222.714 363.127 225.463C358.598 228.212 353.414 229.692 348.118 229.748L286.952 230.414H286.307L281.063 230.47L276.578 230.519L262.837 230.676H262.28L255.278 230.753H255.065L211.908 231.221L173.385 231.624L168.904 231.673L141.074 231.975H141.03L122.981 232.169H122.787L65.7153 232.786L48.6421 232.972C47.1884 232.988 45.735 232.916 44.2901 232.754C43.7981 232.697 43.306 232.633 42.818 232.556C34.8553 231.327 27.5542 227.405 22.131 221.445C14.7862 213.327 9.44206 203.927 5.85238 193.683C5.33343 192.207 4.84943 190.711 4.40038 189.197C-8.02635 147.161 7.12289 92.9523 34.3883 56.6856C35.5311 55.1686 36.6927 53.6892 37.8731 52.2476L37.9013 52.2153C46.2866 41.9191 55.6884 33.3174 65.7032 27.201C83.4499 16.344 103.112 13.2858 122.452 22.3999C138.816 30.114 154.094 33.741 168.904 34.7255C170.401 34.8223 171.897 34.8949 173.385 34.9393C207.358 36.0085 239.197 23.7636 276.586 15.8598C278.075 15.5451 279.567 15.2345 281.072 14.94C307.744 9.63048 337.333 6.83049 372.52 12.7169C376.175 13.3143 379.782 14.1773 383.313 15.299C384.864 15.7993 386.359 16.3373 387.798 16.9129C404.593 23.7474 413.752 36.3756 417.645 52.1992C418.013 53.6677 418.332 55.1619 418.6 56.6815C425.501 94.7436 405.29 148.734 387.798 186.211Z" fill="#F2F2F2"/>
<path opacity="0.1" d="M200.465 189.197C200.303 190.706 200.051 192.204 199.711 193.683H237.503V189.197H200.465ZM168.904 214.538L173.385 214.501V203.419C171.849 203.35 170.352 203.281 168.904 203.209V214.538ZM74.9597 189.197V193.683H155.022V189.197H74.9597ZM417.665 52.2032H387.818V16.9169C386.379 16.3305 384.884 15.7926 383.333 15.3031V52.2193H281.072V14.9279C279.567 15.2224 278.075 15.533 276.586 15.8477V52.2032H173.385V34.9272C171.897 34.8828 170.401 34.8102 168.904 34.7133V52.2032H65.7031V27.1889C55.6884 33.3053 46.2866 41.907 37.9013 52.2032H37.8731V52.2355C36.69 53.6879 35.5284 55.1672 34.3883 56.6735H37.8731V189.197H4.39634C4.8427 190.711 5.3267 192.207 5.84835 193.683H37.869V231.455C39.4801 231.948 41.1246 232.324 42.7897 232.58C43.2778 232.657 43.7698 232.722 44.2619 232.778C45.7067 232.94 47.1601 233.013 48.6139 232.996L65.687 232.81V193.675H168.904V231.685L173.385 231.636V193.683H276.586V230.523L281.072 230.474V193.683H383.313V195.608C383.619 194.97 383.934 194.333 384.248 193.683C384.956 192.22 385.672 190.724 386.398 189.197C386.863 188.215 387.33 187.22 387.798 186.211V56.7017H418.621C418.349 55.1713 418.03 53.6718 417.665 52.2032ZM65.7031 189.197V56.6856H168.904V189.197H65.7031ZM173.393 189.197V56.6856H276.586V189.197H173.393ZM383.321 189.197H281.072V56.6856H383.313L383.321 189.197Z" fill="black"/>
<path d="M336.675 142.452C331.087 132.129 323.166 123.252 313.544 116.53C312.856 116.055 312.063 115.756 311.233 115.659C312.366 108.203 312.128 99.9644 307.922 93.7512C297.939 79.0089 247.079 94.2232 247.079 94.2232C211.428 81.8613 180.528 97.5517 180.528 97.5517C180.528 97.5517 141.074 91.3708 123.013 96.1275C114.494 98.3707 112.425 107.061 112.619 115.623H112.591C111.836 115.621 111.09 115.79 110.409 116.117C109.728 116.444 109.13 116.92 108.658 117.511C103.855 123.514 89.3426 142.005 89.7378 145.575C90.2138 149.856 105.899 205.484 105.19 232.35L324.317 229.93C324.317 229.93 327.947 175.867 337.026 146.273C337.42 145.003 337.293 143.629 336.675 142.452Z" fill="#3F3D56"/>
<path opacity="0.1" d="M108.045 145.817L117.076 127.746L124.679 162.932L124.767 179.264L108.045 145.817Z" fill="black"/>
<path opacity="0.1" d="M315.286 145.817L306.256 127.746L295.781 161.108L297.798 180.071L315.286 145.817Z" fill="black"/>
<path d="M124.017 161.972L295.797 161.031L297.701 180.05L124.679 179.574L124.017 161.972Z" fill="#3F3D56"/>
<path opacity="0.1" d="M124.017 161.972L295.797 161.031L297.701 180.05L124.679 179.574L124.017 161.972Z" fill="black"/>
<path opacity="0.1" d="M294.382 178.199H128.184C125.851 178.199 123.961 180.09 123.961 182.423V194.422C123.961 196.754 125.851 198.646 128.184 198.646H294.382C296.714 198.646 298.604 196.754 298.604 194.422V182.423C298.604 180.09 296.714 178.199 294.382 178.199Z" fill="white"/>
<path d="M262.865 109.797C262.865 109.797 262.284 108.99 261.599 109.425C261.272 109.639 259.735 111.576 258.227 113.545C257.485 114.509 256.746 115.481 256.162 116.256C255.44 117.208 254.952 117.87 254.952 117.87L254.661 118.414L252.899 121.711L251.241 124.809L250.838 126.27L256.436 128.174L262.809 126.435L262.534 125.253L262.486 125.051L262.538 122.332L262.684 114.666L262.752 111.217V110.813L262.865 109.797Z" fill="#FFE09C"/>
<path d="M250.047 128.694C250.047 128.694 256.097 130.853 259.199 129.723C259.199 129.723 261.881 128.868 262.938 128.041C262.938 128.041 264.063 127.452 262.534 125.531C262.534 125.531 258.618 127.932 254.911 126.988L251.205 126.04L250.047 128.694Z" fill="#E7C4C3"/>
<path d="M256.795 125.963C257.739 125.41 258.124 124.314 257.656 123.514C257.187 122.714 256.042 122.514 255.099 123.067C254.155 123.62 253.77 124.717 254.238 125.517C254.707 126.317 255.852 126.517 256.795 125.963Z" fill="#FF7F8E"/>
<path d="M260.819 121.138C261.762 120.585 262.147 119.488 261.679 118.689C261.21 117.889 260.066 117.689 259.122 118.242C258.178 118.795 257.793 119.892 258.262 120.692C258.73 121.492 259.875 121.691 260.819 121.138Z" fill="#FF7F8E"/>
<path d="M262.534 122.332C262.23 122.205 261.901 122.152 261.572 122.178C261.244 122.204 260.927 122.308 260.647 122.481C259.703 123.034 259.316 124.131 259.788 124.93C260.259 125.729 261.401 125.931 262.341 125.378C262.405 125.338 262.47 125.297 262.53 125.253L262.482 125.051L262.534 122.332Z" fill="#FF7F8E"/>
<path d="M255.69 119.133C255.578 118.947 255.428 118.787 255.25 118.664C255.072 118.54 254.87 118.455 254.657 118.414L252.895 121.711C253.203 121.85 253.541 121.911 253.879 121.888C254.216 121.866 254.543 121.76 254.831 121.582C255.774 121.029 256.158 119.931 255.69 119.133Z" fill="#FF7F8E"/>
<path d="M259.61 114.303C259.464 114.07 259.262 113.878 259.021 113.745C258.78 113.612 258.51 113.543 258.235 113.545C257.493 114.509 256.755 115.481 256.17 116.256L256.194 116.304C256.662 117.111 257.807 117.301 258.751 116.748C259.695 116.195 260.07 115.102 259.61 114.303Z" fill="#FF7F8E"/>
<path d="M262.748 111.213C262.54 111.265 262.34 111.346 262.155 111.455C261.211 112.008 260.828 113.105 261.296 113.904C261.442 114.138 261.647 114.331 261.889 114.464C262.131 114.597 262.403 114.665 262.679 114.662L262.748 111.213Z" fill="#FF7F8E"/>
<path d="M253.354 124.442L253.032 123.897C253.515 123.753 253.961 123.505 254.339 123.171C254.363 123.147 254.383 123.119 254.403 123.095C254.806 122.586 254.722 123.643 254.722 123.643C254.722 123.643 253.729 124.486 253.354 124.442Z" fill="#94CC79"/>
<path d="M258.114 123.599L257.791 123.05C258.274 122.905 258.72 122.657 259.098 122.324C259.098 122.3 259.142 122.275 259.162 122.247C259.566 121.743 259.481 122.796 259.481 122.796C259.481 122.796 258.489 123.643 258.114 123.599Z" fill="#94CC79"/>
<path d="M257.678 121.339L257.355 120.791C257.838 120.647 258.284 120.401 258.662 120.069C258.682 120.04 258.707 120.016 258.727 119.992C259.13 119.484 259.045 120.537 259.045 120.537C259.045 120.537 258.053 121.376 257.678 121.339Z" fill="#94CC79"/>
<path d="M258.255 117.265L257.932 116.716C258.415 116.571 258.861 116.323 259.239 115.99C259.239 115.965 259.283 115.941 259.304 115.913C259.707 115.405 259.622 116.462 259.622 116.462C259.622 116.462 258.63 117.305 258.255 117.265Z" fill="#94CC79"/>
<path d="M260.985 112.334L260.667 111.786C261.149 111.641 261.593 111.393 261.97 111.059C261.993 111.036 262.015 111.01 262.034 110.983C262.437 110.478 262.357 111.531 262.357 111.531C262.357 111.531 261.361 112.375 260.985 112.334Z" fill="#94CC79"/>
<path d="M260.679 117.365L260.356 116.817C260.839 116.674 261.285 116.427 261.663 116.095C261.663 116.066 261.707 116.042 261.728 116.018C262.131 115.51 262.046 116.563 262.046 116.563C262.046 116.563 261.054 117.41 260.679 117.365Z" fill="#94CC79"/>
<path d="M249.055 126.988C249.055 126.988 248.28 129.005 250.047 128.682C250.833 127.771 251.371 126.671 251.608 125.491C251.608 125.491 255.428 117.119 256.557 116.353C256.557 116.353 261.534 109.546 262.07 109.446C262.07 109.446 262.244 108.784 260.506 110.184C258.767 111.584 254.96 116.974 254.96 116.974L251.33 122.893L250.475 125.253L249.055 126.988Z" fill="#E7C4C3"/>
<path opacity="0.2" d="M249.055 126.988C249.055 126.988 248.28 129.005 250.047 128.682C250.833 127.771 251.371 126.671 251.608 125.491C251.608 125.491 255.428 117.119 256.557 116.353C256.557 116.353 261.534 109.546 262.07 109.446C262.07 109.446 262.244 108.784 260.506 110.184C258.767 111.584 254.96 116.974 254.96 116.974L251.33 122.893L250.475 125.253L249.055 126.988Z" fill="white"/>
<path d="M189.059 167.967C189.725 170.155 190.544 172.293 191.511 174.366C194.289 173.785 197.021 173.005 199.687 172.034C199.771 172.005 198.158 169.895 197.989 169.722C197.332 168.996 196.549 168.394 195.678 167.947C194.827 167.576 193.778 167.858 192.854 167.906C191.596 167.971 190.331 167.991 189.059 167.967Z" fill="#FBBEBE"/>
<path d="M195.694 171.279C194.306 170.844 193.459 169.444 192.895 168.096C192.33 166.748 191.874 165.272 190.801 164.287C190.598 164.318 190.405 164.4 190.24 164.523C190.075 164.647 189.944 164.81 189.857 164.997C189.69 165.375 189.503 165.744 189.297 166.103C188.853 166.748 188.087 167.063 187.502 167.612C186.917 168.161 186.59 168.996 185.981 169.548C185.215 170.242 184.134 170.416 183.13 170.646C181.574 170.999 180.072 171.555 178.661 172.3C178.142 172.613 177.586 172.863 177.007 173.042C176.369 173.167 175.716 173.189 175.071 173.107L170.635 172.792C170.239 172.742 169.838 172.758 169.449 172.841C169 173.004 168.618 173.312 168.363 173.716C168.108 174.119 167.993 174.596 168.037 175.072C168.094 175.546 168.248 176.003 168.489 176.414C168.731 176.826 169.055 177.183 169.441 177.464C170.216 178.015 171.07 178.447 171.974 178.743C175.844 180.207 179.829 181.346 183.888 182.148V183.028C186.71 184.419 189.813 185.142 192.959 185.142C193.191 185.158 193.424 185.118 193.637 185.025C193.928 184.814 194.132 184.504 194.209 184.154C195.278 181.029 195.901 177.769 196.061 174.471C196.14 173.636 196.076 172.794 195.871 171.981C195.629 171.174 196.46 171.517 195.69 171.203" fill="#2F2E41"/>
<path d="M280.926 154.52C267.749 155.327 254.71 151.449 241.537 151.038C239.897 150.934 238.25 151.04 236.636 151.353C234.942 151.732 233.361 152.498 231.796 153.233C224.718 156.525 217.401 159.252 210.089 161.976L201.691 165.106C200.013 165.732 198.275 166.365 196.488 166.256C195.682 166.208 194.702 166.087 194.254 166.753C192.887 168.77 193.532 171.751 194.435 174.015C194.726 174.749 195.242 175.548 196.008 175.629C196.561 175.685 197.077 175.366 197.622 175.225C199.15 174.822 200.675 175.846 202.248 176.012C204.192 176.218 205.995 175.112 207.83 174.434C210.871 173.309 214.199 173.345 217.397 172.82C222.762 171.925 227.731 169.435 232.377 166.599C234.144 165.518 235.934 164.36 237.967 163.965C240.303 163.509 242.702 164.11 244.997 164.772C250.46 166.317 255.837 168.148 261.107 170.259C263.881 171.372 266.64 172.562 269.528 173.333C275.775 174.976 282.383 174.59 288.396 172.231C290.502 171.396 292.797 169.924 292.918 167.648C292.986 166.349 291.978 165.227 291.304 164.098C290.877 163.384 290.445 162.674 289.973 161.988C287.686 158.655 284.927 154.282 280.926 154.52Z" fill="#2F2E41"/>
<path opacity="0.1" d="M280.926 154.52C267.749 155.327 254.71 151.449 241.537 151.038C239.897 150.934 238.25 151.04 236.636 151.353C234.942 151.732 233.361 152.498 231.796 153.233C224.718 156.525 217.401 159.252 210.089 161.976L201.691 165.106C200.013 165.732 198.275 166.365 196.488 166.256C195.682 166.208 194.702 166.087 194.254 166.753C192.887 168.77 193.532 171.751 194.435 174.015C194.726 174.749 195.242 175.548 196.008 175.629C196.561 175.685 197.077 175.366 197.622 175.225C199.15 174.822 200.675 175.846 202.248 176.012C204.192 176.218 205.995 175.112 207.83 174.434C210.871 173.309 214.199 173.345 217.397 172.82C222.762 171.925 227.731 169.435 232.377 166.599C234.144 165.518 235.934 164.36 237.967 163.965C240.303 163.509 242.702 164.11 244.997 164.772C250.46 166.317 255.837 168.148 261.107 170.259C263.881 171.372 266.64 172.562 269.528 173.333C275.775 174.976 282.383 174.59 288.396 172.231C290.502 171.396 292.797 169.924 292.918 167.648C292.986 166.349 291.978 165.227 291.304 164.098C290.877 163.384 290.445 162.674 289.973 161.988C287.686 158.655 284.927 154.282 280.926 154.52Z" fill="black"/>
<path d="M214.356 168.608C216.416 169.31 218.497 169.957 220.6 170.549C221.773 168.62 223.972 167.277 224.472 165.074C224.493 165.025 224.503 164.973 224.502 164.92C224.501 164.867 224.489 164.814 224.467 164.766C224.444 164.718 224.412 164.676 224.372 164.641C224.332 164.607 224.285 164.581 224.234 164.566C222.731 163.733 221.063 163.244 219.349 163.134C217.994 163.049 217.377 164.461 216.76 165.457C216.514 165.857 214.909 168.798 214.356 168.608Z" fill="#FBBEBE"/>
<path d="M217.26 167.2C216.644 167.096 216.057 166.865 215.534 166.522C215.012 166.179 214.567 165.731 214.227 165.207C213.937 164.699 213.626 163.997 213.045 164.049C212.464 164.102 212.239 164.731 212.134 165.26C211.743 167.26 211.174 169.222 210.436 171.122C209.694 173.026 208.437 174.685 206.806 175.915C206.039 176.443 205.192 176.843 204.442 177.4C203.768 177.896 203.184 178.525 202.425 178.909C201.93 179.138 201.417 179.33 200.893 179.481C200.123 179.753 199.387 180.112 198.699 180.551C198.094 180.9 197.582 181.39 197.206 181.979C197.016 182.277 196.905 182.618 196.883 182.971C196.861 183.324 196.929 183.677 197.081 183.996C197.241 184.257 197.454 184.481 197.706 184.653C197.958 184.826 198.244 184.943 198.545 184.997C199.146 185.102 199.759 185.118 200.364 185.045C202.764 184.868 205.164 184.642 207.564 184.44C208.578 184.378 209.586 184.244 210.581 184.036C211.109 183.907 211.621 183.742 212.146 183.605C213.043 183.374 213.963 183.239 214.888 183.201C215.159 183.18 215.432 183.205 215.695 183.274C216.252 183.456 216.643 184.008 217.22 184.121C217.588 184.156 217.959 184.107 218.305 183.976C220.031 183.504 221.85 183.516 223.637 183.419C224.443 183.379 225.347 183.23 225.71 182.524C226.162 181.644 225.411 180.66 225.117 179.699C224.967 179.096 224.883 178.477 224.867 177.856C224.731 176.321 224.281 174.831 223.544 173.478C222.935 172.356 222.1 171.114 222.528 169.907C222.673 169.504 222.963 169.101 222.931 168.697C222.794 166.765 218.353 167.43 217.26 167.2Z" fill="#2F2E41"/>
<path d="M261.167 133.375C258.835 132.344 256.967 130.485 255.924 128.158C255.702 127.658 255.52 127.137 255.311 126.633C254.619 124.954 253.544 123.461 252.173 122.271C252.025 122.11 251.845 121.983 251.644 121.898C251.442 121.813 251.225 121.772 251.007 121.779C250.796 121.844 250.606 121.962 250.456 122.124C250.305 122.286 250.201 122.484 250.152 122.699C250.031 123.158 250.001 123.637 250.063 124.107C250.181 125.216 250.372 126.316 250.636 127.399L251.273 130.308C251.352 130.757 251.487 131.193 251.677 131.607C251.95 132.098 252.313 132.533 252.745 132.89C253.33 133.431 253.923 133.952 254.524 134.46C255.362 135.262 256.453 135.747 257.61 135.832C260.223 136.316 262.885 137.018 265.095 138.724C265.067 138.724 265.095 136.772 265.047 136.55C264.946 135.965 264.866 135.384 264.486 134.988C263.619 134.101 262.212 133.847 261.167 133.375Z" fill="#FBBEBE"/>
<path opacity="0.1" d="M261.167 133.375C258.835 132.344 256.967 130.485 255.924 128.158C255.702 127.658 255.52 127.137 255.311 126.633C254.619 124.954 253.544 123.461 252.173 122.271C252.025 122.11 251.845 121.983 251.644 121.898C251.442 121.813 251.225 121.772 251.007 121.779C250.796 121.844 250.606 121.962 250.456 122.124C250.305 122.286 250.201 122.484 250.152 122.699C250.031 123.158 250.001 123.637 250.063 124.107C250.181 125.216 250.372 126.316 250.636 127.399L251.273 130.308C251.352 130.757 251.487 131.193 251.677 131.607C251.95 132.098 252.313 132.533 252.745 132.89C253.33 133.431 253.923 133.952 254.524 134.46C255.362 135.262 256.453 135.747 257.61 135.832C260.223 136.316 262.885 137.018 265.095 138.724C265.067 138.724 265.095 136.772 265.047 136.55C264.946 135.965 264.866 135.384 264.486 134.988C263.619 134.101 262.212 133.847 261.167 133.375Z" fill="black"/>
<path d="M288.001 111.1C289.772 111.1 291.207 109.656 291.207 107.876C291.207 106.096 289.772 104.653 288.001 104.653C286.23 104.653 284.794 106.096 284.794 107.876C284.794 109.656 286.23 111.1 288.001 111.1Z" fill="#2F2E41"/>
<path d="M286.016 105.927C285.149 105.831 284.181 105.762 283.483 106.295C283.113 106.62 282.817 107.022 282.616 107.473C281.899 108.706 281.339 110.025 280.951 111.398C280.664 112.576 280.616 113.819 280.261 114.965C279.603 117.111 277.921 118.923 277.728 121.162C277.643 122.162 277.813 123.337 277.079 124.022C276.899 124.173 276.708 124.308 276.506 124.426C275.999 124.766 275.569 125.208 275.243 125.725C275.023 126.189 274.72 126.609 274.348 126.964C273.695 127.448 272.614 127.395 272.291 128.146C271.968 128.896 272.799 129.76 272.606 130.566C272.448 131.228 271.71 131.531 271.202 131.983C270.549 132.56 270.25 133.427 269.992 134.258C268.92 134.461 267.817 134.429 266.759 134.165C265.701 133.901 264.712 133.411 263.861 132.729C264.753 134.932 264.773 137.365 264.813 139.745C264.813 140.516 264.813 141.383 264.248 141.92C266.802 141.976 269.29 142.666 271.779 143.231C272.868 143.477 274.049 143.691 275.062 143.231C275.633 142.923 276.143 142.513 276.566 142.021C277.921 140.645 279.341 139.148 279.672 137.24C279.857 136.175 279.672 135.077 279.728 134.012C279.853 132.674 280.124 131.354 280.535 130.074C281.253 127.422 281.735 124.711 281.975 121.973C282.12 120.286 283.588 118.927 284.347 117.414C285.799 114.565 287.279 111.596 287.388 108.397C287.44 107.34 287.077 106.044 286.016 105.927Z" fill="#2F2E41"/>
<path opacity="0.1" d="M286.016 105.927C285.149 105.831 284.181 105.762 283.483 106.295C283.113 106.62 282.817 107.022 282.616 107.473C281.899 108.706 281.339 110.025 280.951 111.398C280.664 112.576 280.616 113.819 280.261 114.965C279.603 117.111 277.921 118.923 277.728 121.162C277.643 122.162 277.813 123.337 277.079 124.022C276.899 124.173 276.708 124.308 276.506 124.426C275.999 124.766 275.569 125.208 275.243 125.725C275.023 126.189 274.72 126.609 274.348 126.964C273.695 127.448 272.614 127.395 272.291 128.146C271.968 128.896 272.799 129.76 272.606 130.566C272.448 131.228 271.71 131.531 271.202 131.983C270.549 132.56 270.25 133.427 269.992 134.258C268.92 134.461 267.817 134.429 266.759 134.165C265.701 133.901 264.712 133.411 263.861 132.729C264.753 134.932 264.773 137.365 264.813 139.745C264.813 140.516 264.813 141.383 264.248 141.92C266.802 141.976 269.29 142.666 271.779 143.231C272.868 143.477 274.049 143.691 275.062 143.231C275.633 142.923 276.143 142.513 276.566 142.021C277.921 140.645 279.341 139.148 279.672 137.24C279.857 136.175 279.672 135.077 279.728 134.012C279.853 132.674 280.124 131.354 280.535 130.074C281.253 127.422 281.735 124.711 281.975 121.973C282.12 120.286 283.588 118.927 284.347 117.414C285.799 114.565 287.279 111.596 287.388 108.397C287.44 107.34 287.077 106.044 286.016 105.927Z" fill="black"/>
<path d="M283.003 157.295C280.261 155.988 278.252 153.555 276.034 151.47C271.799 147.491 266.616 144.675 262.163 140.943C259.211 138.474 256.573 135.594 253.33 133.524C250.476 131.709 247.242 130.577 243.88 130.215C243.495 130.147 243.099 130.166 242.723 130.272C242.297 130.46 241.927 130.753 241.646 131.123C240.209 132.745 238.931 134.502 237.83 136.368C232.183 145.95 224.165 154.019 217.522 162.924C217.312 163.135 217.188 163.417 217.173 163.715C217.158 164.013 217.254 164.306 217.442 164.537L218.793 167.184C219.547 168.669 220.761 170.412 222.39 170.101C223.137 169.964 223.73 169.415 224.278 168.891L230.328 163.093L236.689 157.009C240.415 153.446 244.203 149.799 246.635 145.244C248.531 148.536 251.902 150.691 254.213 153.717C255.093 154.863 255.827 156.138 256.593 157.348C257.852 159.293 259.283 161.12 260.711 162.944L268.008 172.26C269 173.526 270.024 174.826 271.383 175.685C273.114 176.778 275.215 177.069 277.248 177.25C279.989 177.495 282.741 177.595 285.492 177.549C287.589 177.513 289.751 177.375 291.635 176.443C293.518 175.511 295.063 173.619 294.966 171.489C294.851 170.394 294.491 169.34 293.914 168.403C291.324 163.601 287.916 159.627 283.003 157.295Z" fill="#2F2E41"/>
<path d="M289.973 112.588C291.334 112.588 292.438 111.478 292.438 110.107C292.438 108.737 291.334 107.626 289.973 107.626C288.612 107.626 287.509 108.737 287.509 110.107C287.509 111.478 288.612 112.588 289.973 112.588Z" fill="#E8E8F0"/>
<path d="M289.429 108.243C289.983 109.348 290.08 110.626 289.699 111.802C289.317 112.962 288.784 114.066 288.114 115.086C287.537 116.139 286.845 117.125 286.053 118.027C289.856 118.213 293.547 116.72 296.902 114.908C299.605 113.456 302.299 111.656 303.759 108.937C303.33 109.041 302.884 109.054 302.449 108.974C302.015 108.894 301.602 108.723 301.238 108.473C300.514 107.967 299.865 107.362 299.31 106.674L297.399 104.523C296.95 104.056 296.556 103.539 296.225 102.982C295.81 102.221 295.635 101.352 295.721 100.489C294.962 101.284 294.113 101.988 293.192 102.587C291.828 103.474 290.324 104.12 288.957 105.008C288.473 105.318 287.392 105.814 287.67 106.456C287.948 107.097 289.054 107.565 289.429 108.243Z" fill="#FBBEBE"/>
<path opacity="0.1" d="M289.429 108.243C289.983 109.348 290.08 110.626 289.699 111.802C289.317 112.962 288.784 114.066 288.114 115.086C287.537 116.139 286.845 117.125 286.053 118.027C289.856 118.213 293.547 116.72 296.902 114.908C299.605 113.456 302.299 111.656 303.759 108.937C303.33 109.041 302.884 109.054 302.449 108.974C302.015 108.894 301.602 108.723 301.238 108.473C300.514 107.967 299.865 107.362 299.31 106.674L297.399 104.523C296.95 104.056 296.556 103.539 296.225 102.982C295.81 102.221 295.635 101.352 295.721 100.489C294.962 101.284 294.113 101.988 293.192 102.587C291.828 103.474 290.324 104.12 288.957 105.008C288.473 105.318 287.392 105.814 287.67 106.456C287.948 107.097 289.054 107.565 289.429 108.243Z" fill="black"/>
<path d="M289.481 108.619C288.767 109.829 288.614 111.241 289.481 112.338C289.59 112.476 289.989 113.323 290.163 113.331C290.331 113.314 290.486 113.235 290.598 113.109C291.522 112.266 292.212 111.189 293.018 110.232C293.825 109.276 294.853 108.409 296.088 108.215C297.576 107.985 299.016 108.772 300.319 109.534C300.885 109.811 301.38 110.215 301.763 110.716C302.037 111.213 302.2 111.764 302.238 112.33C302.686 115.723 302.678 119.161 302.666 122.582C302.666 125.059 302.666 127.549 302.182 129.977C301.94 131.236 301.577 132.467 301.404 133.734C301.279 134.852 301.229 135.977 301.254 137.103V141.815C301.222 142.68 301.283 143.545 301.436 144.397C301.658 145.43 302.146 146.382 302.472 147.387C302.81 148.541 303.041 149.724 303.162 150.921L303.807 155.799C304.009 157.336 304.158 159.026 303.231 160.237C302.827 160.793 302.259 161.241 301.835 161.798C300.222 163.872 300.75 166.837 300.085 169.375C299.561 171.233 298.483 172.887 296.995 174.116C295.854 175.084 294.382 175.842 292.917 175.572C290.937 175.205 289.747 173.151 289.207 171.186C288.666 169.222 288.473 167.112 287.303 165.465C286.347 164.118 284.883 163.271 283.528 162.31C282.173 161.35 280.882 160.112 280.592 158.482C280.463 157.772 280.543 157.041 280.467 156.323C280.361 155.413 280.013 154.548 279.458 153.819C278.903 153.09 278.162 152.523 277.312 152.18C276.3 151.776 275.05 151.643 274.489 150.715C275.965 149.884 276.941 148.347 277.458 146.729C277.974 145.111 278.079 143.392 278.18 141.698L278.518 136.029C278.668 133.496 278.736 130.986 279.853 128.711C280.35 127.69 280.971 126.738 281.491 125.733C282.177 124.319 282.764 122.859 283.245 121.364C284.052 119.04 284.859 116.716 285.585 114.364C285.874 113.227 286.305 112.132 286.867 111.104C287.44 110.119 288.336 108.832 289.481 108.619Z" fill="#BC412B"/>
<path d="M276.897 145.446L278.397 145.498L278.716 143.235C278.757 142.781 278.863 142.335 279.031 141.912C279.279 141.465 279.568 141.042 279.894 140.649C281.37 138.563 281.261 135.807 281.628 133.262C282.116 129.881 283.528 126.717 284.923 123.607L287.844 117.115C288.422 116.012 288.7 114.777 288.65 113.533C288.678 112.528 288.973 108.881 289.001 107.884C289.001 107.513 288.194 107.719 288.013 107.388C287.65 106.666 287.15 108.622 286.468 109.05C285.787 109.478 285.407 110.261 285.121 111.011C284.492 112.645 284.109 114.364 283.508 116.014C282.907 117.664 282.108 119.286 280.789 120.452C280.192 120.976 279.507 121.388 278.942 121.949C277.131 123.74 276.953 126.568 276.889 129.122C276.857 130.619 276.55 145.446 276.897 145.446Z" fill="#2F2E41"/>
<path d="M298.483 105.911C297.027 106.484 296.229 108.066 295.821 109.583C295.414 111.1 295.245 112.722 294.462 114.081C292.631 117.265 287.969 118.192 286.682 121.634C286.279 122.76 286.279 123.994 286.162 125.192C285.928 127.658 285.117 130.034 284.879 132.503C284.752 134.418 284.797 136.341 285.012 138.248L286.625 157.691C286.863 160.515 286.855 163.513 286.137 166.24C287.787 166.559 289.505 166.131 291.034 165.433C292.563 164.735 293.962 163.775 295.434 162.964C297.967 161.564 300.762 160.576 302.981 158.712C303.383 158.399 303.727 158.018 303.997 157.586C304.441 156.819 304.481 155.887 304.691 155.024C304.882 154.334 305.126 153.659 305.421 153.007C306.233 151.047 306.942 149.046 307.542 147.011C307.955 145.662 308.28 144.287 308.514 142.896C308.692 141.791 308.789 140.669 308.885 139.551C309.004 137.8 309.351 136.072 309.918 134.411C311.335 130.452 312.139 126.3 312.302 122.098C312.347 121.491 312.305 120.881 312.177 120.286C311.928 119.565 311.598 118.875 311.193 118.229C310.515 116.954 310.108 115.55 309.47 114.251C308.026 111.326 305.473 109.103 302.803 107.243C301.504 106.335 299.972 105.33 298.483 105.911Z" fill="#2F2E41"/>
<path d="M264.414 137.631C263.255 137.023 262.207 136.225 261.312 135.271C260.909 134.795 260.57 134.258 260.155 133.79C259.107 132.671 257.746 131.895 256.25 131.563C254.766 131.237 253.248 131.089 251.729 131.123C250.712 131.059 249.692 131.182 248.72 131.486C248.234 131.645 247.796 131.926 247.447 132.3C247.099 132.675 246.851 133.132 246.728 133.629C246.506 134.839 247.296 136.013 248.244 136.792C249.127 137.512 250.165 138.016 251.277 138.264C252.184 138.421 253.098 138.528 254.016 138.583C259.412 139.148 264.228 142.085 268.939 144.76C273.094 147.114 277.327 149.311 281.64 151.353C281.81 150.059 281.882 148.755 281.854 147.451C281.83 146.479 281.781 144.994 280.862 144.421C279.793 143.756 278.038 143.614 276.828 143.211C274.048 142.299 271.333 141.2 268.701 139.923C267.247 139.21 265.817 138.446 264.414 137.631Z" fill="#FBBEBE"/>
<path d="M297.553 100.135C298.911 94.9694 295.848 89.687 290.712 88.3363C285.576 86.9856 280.312 90.0782 278.954 95.2437C277.596 100.409 280.659 105.692 285.795 107.042C290.931 108.393 296.195 105.3 297.553 100.135Z" fill="#FBBEBE"/>
<path d="M301.234 116.877C300.375 117.878 299.944 119.169 299.367 120.355C298.181 122.8 296.318 124.898 295.386 127.456C294.402 130.151 294.434 133.354 292.506 135.473C292.171 135.84 291.768 136.195 291.671 136.683C291.658 136.979 291.624 137.275 291.57 137.566C291.296 138.333 290.038 138.373 289.804 139.156C289.735 139.386 289.771 139.636 289.687 139.862C289.493 140.366 288.828 140.443 288.38 140.75C287.444 141.383 287.634 142.852 286.968 143.768C286.676 144.11 286.298 144.369 285.872 144.516C285.447 144.664 284.99 144.695 284.548 144.607C283.674 144.427 282.833 144.113 282.056 143.675C281.78 143.521 281.475 143.427 281.16 143.396C280.788 143.408 280.427 143.53 280.124 143.747C278.349 144.877 277.514 147.116 277.526 149.23C277.538 151.344 278.264 153.378 279.006 155.355C279.109 155.688 279.276 155.998 279.499 156.267C280.087 156.888 281.112 156.791 281.894 156.444C282.677 156.097 283.387 155.553 284.226 155.399C285.714 155.129 287.17 156.154 288.662 156.069C289.767 156.004 290.748 155.363 291.663 154.742C293.131 153.749 294.624 152.724 295.696 151.32C296.358 150.457 296.842 149.476 297.419 148.553C298.157 147.427 298.965 146.349 299.839 145.325L305.38 138.539C305.937 137.896 306.436 137.206 306.873 136.477C307.377 135.492 307.767 134.452 308.034 133.379C308.563 131.567 309.095 129.747 309.184 127.855C309.215 126.303 309.08 124.751 308.781 123.228C308.589 121.709 308.182 120.225 307.571 118.822C306.429 116.304 303.497 114.235 301.234 116.877Z" fill="#2F2E41"/>
<path d="M317.997 112.56C318.441 110.904 318.485 109.166 318.126 107.49C317.767 105.814 317.015 104.246 315.932 102.918C317.404 96.6358 314.197 90.3459 308.551 88.018C308.752 82.1275 305.021 76.7212 299.274 75.2042C293.301 73.6348 287.174 76.7898 284.597 82.3979C280.967 80.5137 277.127 80.7154 275.86 82.9304C274.538 85.2463 276.526 88.8895 280.297 91.0641C281.486 91.7589 282.787 92.2409 284.141 92.4883C284.722 94.1339 285.642 95.6396 286.84 96.9084C288.039 98.1772 289.489 99.181 291.098 99.8554C290.999 102.237 291.565 104.599 292.734 106.677C293.902 108.754 295.627 110.465 297.713 111.616C297.941 113.272 298.553 114.851 299.5 116.228C299.389 116.517 299.295 116.812 299.218 117.111C298.032 121.61 300.597 126.185 304.941 127.327C309.285 128.469 313.77 125.749 314.952 121.251C315.269 120.051 315.324 118.798 315.113 117.575C316.507 116.193 317.503 114.461 317.997 112.56Z" fill="#3F3D56"/>
<path opacity="0.1" d="M278.349 84.1005C279.615 81.8855 283.451 81.6797 287.085 83.5679C289.654 77.9598 295.789 74.8008 301.763 76.3743C302.033 76.4428 302.299 76.5276 302.569 76.6163C301.548 75.9861 300.439 75.5102 299.278 75.2042C293.305 73.6348 287.178 76.7898 284.601 82.3979C280.971 80.5137 277.131 80.7154 275.864 82.9304C274.542 85.2463 276.53 88.8895 280.301 91.0641C281.009 91.4715 281.755 91.8093 282.528 92.0727C278.922 89.8699 277.058 86.3598 278.349 84.1005Z" fill="black"/>
<path opacity="0.1" d="M301.71 118.281C301.787 117.982 301.882 117.687 301.992 117.398C301.046 116.019 300.434 114.439 300.206 112.782C298.119 111.632 296.395 109.922 295.226 107.845C294.058 105.768 293.492 103.407 293.591 101.025C291.982 100.351 290.531 99.3472 289.333 98.0784C288.135 96.8096 287.215 95.304 286.633 93.6583C285.844 93.5175 285.072 93.2916 284.33 92.9846C284.946 94.5196 285.862 95.9166 287.023 97.0942C288.184 98.2717 289.568 99.2063 291.094 99.8433C290.995 102.225 291.561 104.587 292.73 106.665C293.898 108.742 295.623 110.453 297.709 111.604C297.937 113.26 298.549 114.839 299.496 116.216C299.385 116.504 299.291 116.799 299.213 117.099C298.032 121.582 300.577 126.141 304.896 127.303C303.512 126.301 302.465 124.901 301.895 123.289C301.326 121.678 301.262 119.931 301.71 118.281Z" fill="black"/>
<path d="M292.401 101.018C293.052 100.523 293.043 99.4158 292.382 98.5446C291.72 97.6734 290.656 97.3681 290.005 97.8627C289.354 98.3574 289.362 99.4646 290.024 100.336C290.686 101.207 291.75 101.512 292.401 101.018Z" fill="#FBBEBE"/>
<path d="M174.16 15.872C177.788 15.872 180.73 12.9294 180.73 9.29966C180.73 5.66988 177.788 2.72736 174.16 2.72736C170.531 2.72736 167.589 5.66988 167.589 9.29966C167.589 12.9294 170.531 15.872 174.16 15.872Z" fill="#3F3D56"/>
<path d="M188.418 47.7692C198.595 47.7692 206.846 37.0757 206.846 23.8846C206.846 10.6935 198.595 0 188.418 0C178.24 0 169.989 10.6935 169.989 23.8846C169.989 37.0757 178.24 47.7692 188.418 47.7692Z" fill="#3F3D56"/>
<path opacity="0.1" d="M188.418 40.5554C179.185 40.5554 171.538 31.756 170.195 20.2777C170.055 21.4749 169.985 22.6793 169.985 23.8846C169.985 37.0736 178.237 47.7692 188.418 47.7692C198.598 47.7692 206.846 37.0736 206.846 23.8846C206.846 22.6793 206.776 21.4749 206.636 20.2777C205.297 31.7722 197.65 40.5554 188.418 40.5554Z" fill="black"/>
<path d="M227.686 93.8359C227.283 95.4497 225.585 96.7649 223.697 97.6727C219.72 99.5891 214.824 100.158 210.069 100.352C208.859 100.425 207.645 100.402 206.439 100.283C203.95 99.9886 201.643 98.9275 200.203 97.4145C199.998 97.2493 199.855 97.0186 199.8 96.7609C199.81 96.6063 199.851 96.4553 199.92 96.3167C199.989 96.1781 200.085 96.0548 200.203 95.954C202.74 93.1863 206.967 91.4837 211.21 90.2733C214.437 89.3414 220.059 86.9287 223.58 87.2555C227.001 87.55 228.186 91.7782 227.686 93.8359Z" fill="#3F3D56"/>
<path opacity="0.1" d="M227.686 93.8359C227.283 95.4497 225.585 96.7649 223.697 97.6727C219.72 99.5891 214.824 100.158 210.069 100.352C208.859 100.425 207.645 100.402 206.439 100.283C203.95 99.9886 201.643 98.9275 200.203 97.4145C199.998 97.2493 199.855 97.0186 199.8 96.7609C199.81 96.6063 199.851 96.4553 199.92 96.3167C199.989 96.1781 200.085 96.0548 200.203 95.954C202.74 93.1863 206.967 91.4837 211.21 90.2733C214.437 89.3414 220.059 86.9287 223.58 87.2555C227.001 87.55 228.186 91.7782 227.686 93.8359Z" fill="black"/>
<path d="M177.165 81.6757C175.955 84.0495 175.736 86.8062 176.556 89.3413C177.391 91.8622 178.956 94.0781 181.053 95.7079C186.203 99.8433 193.27 100.412 199.856 100.36C205.632 100.308 211.399 99.9116 217.127 99.1736C219.035 98.9274 220.963 98.637 222.729 97.8744C224.879 96.9424 226.763 95.2358 227.533 93.033C228.303 90.8301 227.759 88.1027 225.92 86.6261C224.306 85.3269 222.116 85.1494 220.063 85.0122L208.306 84.3062C209.468 83.1281 211.012 82.4624 212.428 81.6111C214.304 80.4734 215.55 78.569 216.917 76.8544C218.934 74.2884 221.354 72.0452 223.774 69.8141C224.177 72.0089 225.545 73.8123 227.178 75.3293C228.812 76.8463 230.695 78.0647 232.397 79.5051C236.511 82.999 239.472 87.7436 243.799 90.9713C246.777 90.1882 249.56 88.7981 251.975 86.8883L250.293 83.8422C250.155 83.5232 249.937 83.2452 249.66 83.0353C249.18 82.7448 248.567 82.8941 248.014 82.8134C246.538 82.5915 245.893 80.8849 245.312 79.5091C243.723 75.7247 240.674 72.7916 238.052 69.6204C236.14 67.2825 234.446 64.7747 232.99 62.1282C232.115 60.5507 231.316 58.9006 230.126 57.5409C228.937 56.1813 227.279 55.1202 225.472 55.1202C223.859 55.1202 222.407 55.9271 221.035 56.734C216.858 59.2167 212.838 61.9561 209 64.9363C206.983 66.4936 204.995 68.1437 202.639 69.0999C201.647 69.5034 200.622 69.7777 199.65 70.2659C197.985 71.1253 196.718 72.5777 195.355 73.8647C190.499 78.4601 183.848 81.4376 177.165 81.6757Z" fill="#605D82"/>
<path d="M201.752 48.9554C201.699 50.3616 201.401 51.7478 200.869 53.0505C200.599 53.6977 200.2 54.2825 199.694 54.7684C199.189 55.2543 198.589 55.6309 197.932 55.8747C196.998 56.1253 196.018 56.1571 195.069 55.9675C194.239 55.878 193.441 55.6021 192.733 55.1606C191.632 54.4021 191.084 53.0505 190.882 51.7271C190.68 50.4038 190.773 49.0522 190.644 47.7208C190.518 46.6447 190.313 45.5794 190.031 44.5335C189.946 44.1866 189.858 43.8396 189.769 43.4926C189.68 43.1456 189.603 42.7987 189.527 42.4517C189.45 42.1047 189.39 41.8021 189.333 41.4713C189.277 41.1405 189.244 40.9145 189.216 40.6361C189.19 39.8042 189.055 38.9794 188.813 38.1831C188.583 37.6676 188.295 37.1803 187.954 36.7307C187.809 36.5209 187.667 36.3272 187.55 36.0973C187.175 35.5352 187 34.8628 187.054 34.1889C187.07 34.0844 187.095 33.9817 187.131 33.8823C187.143 33.8437 187.158 33.806 187.175 33.7693C187.319 33.7298 187.451 33.6559 187.56 33.554C187.669 33.4521 187.752 33.3252 187.8 33.1843C187.856 32.8803 187.829 32.567 187.724 32.2765C187.605 31.8708 187.442 31.4797 187.236 31.1105C187.103 30.8685 186.647 30.4287 186.643 30.1503C186.643 29.5895 187.732 29.1376 188.176 28.9157C189.531 28.2357 191.043 27.9294 192.556 28.0281C193.524 28.0927 194.572 28.3912 195.109 29.2062C195.593 29.9365 195.512 30.8846 195.734 31.7359C195.753 31.8602 195.804 31.9772 195.883 32.0748C195.989 32.1706 196.121 32.2312 196.262 32.2483C196.499 32.2959 196.741 32.3055 196.98 32.2765C197.044 32.2731 197.108 32.2636 197.17 32.2483C197.543 32.1793 197.896 32.0276 198.202 31.8045C198.404 31.748 198.606 31.7076 198.803 31.6713H198.828C199.634 34.205 199.735 36.9163 200.393 39.5065C200.719 40.7895 201.199 42.0563 201.252 43.3796C201.252 43.4361 201.252 43.4966 201.252 43.5531C201.252 43.9808 201.227 44.4084 201.252 44.8321C201.259 45.0217 201.281 45.2105 201.316 45.3969C201.389 45.6973 201.478 45.9936 201.582 46.2845C201.611 46.3773 201.639 46.4701 201.663 46.5669C201.683 46.6346 201.699 46.7033 201.712 46.7727C201.83 47.4946 201.843 48.2297 201.752 48.9554Z" fill="#FBBEBE"/>
<path d="M190.507 32.3814C195.728 32.3814 199.961 28.1473 199.961 22.9244C199.961 17.7014 195.728 13.4673 190.507 13.4673C185.285 13.4673 181.053 17.7014 181.053 22.9244C181.053 28.1473 185.285 32.3814 190.507 32.3814Z" fill="#FBBEBE"/>
<path d="M250.535 74.4538C250.26 71.8761 249.343 69.4085 247.869 67.2763L248.607 71.6538C248.301 71.7415 247.976 71.7383 247.672 71.6444C247.367 71.5506 247.097 71.3702 246.893 71.1253C246.494 70.6278 246.189 70.0618 245.994 69.4549C244.919 66.788 243.514 64.2668 241.811 61.9507C235.793 61.4463 229.84 58.953 224.548 56.04C219.257 53.1271 214.3 49.6453 209.072 46.6153C208.166 46.0686 207.223 45.5859 206.249 45.1709C204.616 44.5173 202.78 44.1784 201.232 43.4078L200.921 43.2424C200.57 43.054 200.238 42.8325 199.929 42.5807C199.763 42.4437 199.605 42.2969 199.457 42.141C198.683 41.2421 198.069 40.2173 197.642 39.111C196.811 37.2713 196.513 35.0482 195.686 33.2084C196.067 32.8532 196.494 32.5506 196.956 32.3087L197.158 32.2079C197.486 32.0544 197.828 31.9302 198.178 31.8367C198.38 31.7802 198.582 31.7399 198.779 31.7036H198.803C199.741 31.5524 200.701 31.6285 201.603 31.9255C202.917 32.3733 204.023 33.2609 205.136 34.1041C206.89 35.4315 208.713 36.6822 210.307 38.2032C211.218 39.0787 212.053 40.039 213.033 40.8338C213.85 41.4648 214.712 42.0365 215.61 42.5444L231.558 52.0458C233.357 53.115 235.16 54.1882 236.919 55.3259C239.593 57.0487 242.162 58.9167 244.743 60.7847L249.297 64.0849C249.796 64.4083 250.233 64.8182 250.588 65.2953C250.9 65.8303 251.094 66.426 251.156 67.0423C251.535 69.5273 251.322 72.0665 250.535 74.4538Z" fill="#FBBEBE"/>
<path d="M204.099 56.0683C203.458 58.9288 200.57 60.6596 199.058 63.1731C197.178 66.2919 197.944 69.9189 198.654 73.4936L194.786 76.8261C194.076 77.4353 193.362 78.0365 192.6 78.5892C191.482 79.341 190.314 80.015 189.103 80.6065L185.683 82.3656C184.622 82.9619 183.498 83.4382 182.331 83.7857C180.081 84.3627 177.693 83.9592 175.475 83.2935C175.212 83.2251 174.96 83.1219 174.724 82.9869C174.586 82.9036 174.465 82.794 174.369 82.6641C174.148 82.2709 174.069 81.8138 174.144 81.369C174.369 77.6249 175.285 73.9575 176.197 70.3184C176.676 68.1328 177.324 65.988 178.137 63.9034C178.937 62.119 179.857 60.3909 180.891 58.7311C182.101 56.6856 183.311 54.6239 184.925 52.8689C185.614 52.1104 186.385 51.3922 186.796 50.4481C187.365 49.149 187.143 47.6603 187.26 46.2482C187.347 45.1851 187.629 44.1472 188.091 43.1859C188.338 42.6686 188.635 42.1767 188.978 41.7173C189.136 42.0805 189.289 42.4436 189.446 42.8026L189.749 43.5127C189.882 43.8153 190.011 44.1219 190.152 44.4245C190.528 45.2906 190.902 46.1581 191.273 47.0268C191.674 48.1212 192.247 49.1442 192.971 50.0568C193.742 50.9283 194.875 51.5617 196.028 51.4366C196.57 51.3462 197.085 51.1364 197.536 50.8224C197.986 50.5084 198.362 50.098 198.634 49.6211C199.174 48.6656 199.565 47.6328 199.792 46.5588C200.109 45.2519 200.153 43.8934 199.921 42.5686C199.517 40.0148 198.448 37.4084 197.662 35.0361C197.341 34.2457 197.156 33.4069 197.113 32.5549C197.113 32.4587 197.122 32.3626 197.142 32.2684V32.1958C197.47 32.0423 197.812 31.9181 198.162 31.8246C198.364 31.7681 198.565 31.7278 198.763 31.6915C199.457 35.4571 200.152 39.2146 200.848 42.964C200.848 43.0528 200.885 43.1415 200.901 43.2303C200.998 43.7709 201.098 44.3075 201.211 44.8441C201.324 45.3807 201.421 45.8165 201.542 46.2966C201.582 46.458 201.627 46.6234 201.671 46.7848C201.796 47.2286 201.933 47.6643 202.074 48.1C203.059 50.7346 204.7 53.3611 204.099 56.0683Z" fill="#BC412B"/>
<path d="M242.472 96.2808C242.438 96.8363 242.544 97.3917 242.783 97.8946C243.372 98.9759 244.8 99.222 246.01 99.3228C253.187 99.9146 260.408 99.6954 267.536 98.6692C267.923 98.6409 268.298 98.5236 268.633 98.3263C269.645 97.6162 269.036 95.8854 267.915 95.3286C266.794 94.7718 265.495 94.9251 264.285 94.671C263.078 94.3657 261.928 93.867 260.881 93.1943C258.42 91.7795 256 90.3002 253.621 88.7563C252.197 87.8405 250.515 86.8641 248.914 87.4088C244.562 88.8773 242.44 91.5966 242.472 96.2808Z" fill="#2F2E41"/>
<path d="M189.563 42.2621L189.527 42.4597L189.466 42.7906C189.269 43.8073 189.023 44.8079 188.744 45.8286C187.974 48.6084 186.945 51.3479 185.921 54.043L177.689 75.7489C176.995 77.5726 176.305 79.38 175.519 81.1794C175.257 81.7725 174.987 82.3898 174.712 82.9789C173.748 85.1454 172.821 87.3846 172.514 89.6964C172.312 91.2255 172.111 92.7869 172.413 94.2999C172.716 95.8128 173.623 97.2935 175.079 97.8503C175.781 98.1246 176.785 98.4918 176.592 99.222C176.491 99.6255 176.035 99.8191 175.624 99.8837C175.084 99.9707 174.532 99.9373 174.007 99.786C173.482 99.6346 172.997 99.369 172.587 99.0082C171.82 98.3304 171.227 97.2693 170.207 97.1563C169.501 97.0797 168.852 97.5033 168.19 97.7978C165.549 99.0082 162.475 98.1609 159.7 97.3016C159.918 96.18 161.047 95.4376 162.165 95.2157C163.282 94.9938 164.443 95.1471 165.589 95.1189C165.955 95.138 166.319 95.0436 166.629 94.8485C166.91 94.5974 167.111 94.269 167.206 93.9045C167.941 91.7228 168.488 89.4822 168.84 87.2071C169.211 84.8267 169.364 82.414 169.888 80.0659C170.292 78.2342 170.929 76.459 171.469 74.6596C172.519 70.9563 173.379 67.202 174.047 63.4112C174.385 61.8378 174.628 60.2453 174.773 58.6424C174.866 57.311 174.821 55.9715 174.95 54.6482C175.164 52.9239 175.523 51.2206 176.023 49.5565C176.515 47.737 177.003 45.9254 177.495 44.1099C178.221 41.4229 179 38.635 180.839 36.5491C181.477 35.8139 182.26 35.2179 183.139 34.798C184.017 34.3781 184.972 34.1433 185.945 34.1082C186.31 34.1065 186.674 34.1458 187.03 34.2252L187.208 34.2696C187.597 34.3699 187.97 34.5248 188.317 34.7295C188.885 34.3664 189.172 34.4955 189.551 35.0483C189.88 35.6385 190.035 36.31 189.999 36.9849C190.028 38.754 189.882 40.5217 189.563 42.2621Z" fill="#FBBEBE"/>
<path d="M190.184 44.4044L190.16 44.4286L190.031 44.5577L188.744 45.8448L188.111 43.19L185.945 34.0961C186.31 34.0945 186.674 34.1337 187.03 34.2131C187.046 34.1087 187.071 34.0059 187.107 33.9065L187.208 34.2575L187.942 36.7549L189.333 41.4955L189.563 42.2782L190.184 44.4044Z" fill="#BC412B"/>
<path d="M197.408 8.97693H186.574C183.901 8.97693 181.734 11.1445 181.734 13.8184V16.9613C181.734 19.6352 183.901 21.8028 186.574 21.8028H197.408C200.081 21.8028 202.248 19.6352 202.248 16.9613V13.8184C202.248 11.1445 200.081 8.97693 197.408 8.97693Z" fill="#3F3D56"/>
<path d="M203.446 15.872C207.075 15.872 210.016 12.9294 210.016 9.29966C210.016 5.66988 207.075 2.72736 203.446 2.72736C199.817 2.72736 196.876 5.66988 196.876 9.29966C196.876 12.9294 199.817 15.872 203.446 15.872Z" fill="#3F3D56"/>
<path opacity="0.1" d="M203.288 2.72335H203.047C204.739 2.79604 206.337 3.51961 207.509 4.74306C208.681 5.96652 209.335 7.59533 209.335 9.28959C209.335 10.9839 208.681 12.6127 207.509 13.8361C206.337 15.0596 204.739 15.7832 203.047 15.8558H203.288C205.031 15.8558 206.702 15.1634 207.934 13.9309C209.167 12.6983 209.859 11.0266 209.859 9.28354C209.859 7.54046 209.167 5.86877 207.934 4.63622C206.702 3.40368 205.031 2.71124 203.288 2.71124V2.72335Z" fill="black"/>
<path opacity="0.1" d="M174.16 2.72335H174.402C172.71 2.79604 171.111 3.51961 169.939 4.74306C168.767 5.96652 168.113 7.59533 168.113 9.28959C168.113 10.9839 168.767 12.6127 169.939 13.8361C171.111 15.0596 172.71 15.7832 174.402 15.8558H174.16C173.297 15.8558 172.443 15.6858 171.645 15.3556C170.848 15.0253 170.124 14.5412 169.514 13.9309C168.904 13.3206 168.42 12.596 168.09 11.7987C167.759 11.0013 167.589 10.1466 167.589 9.28354C167.589 8.42045 167.759 7.56582 168.09 6.76844C168.42 5.97105 168.904 5.24652 169.514 4.63622C170.124 4.02593 170.848 3.54182 171.645 3.21153C172.443 2.88124 173.297 2.71124 174.16 2.71124V2.72335Z" fill="black"/>
<path opacity="0.1" d="M202.45 20.5157H185.8C185.29 20.5157 184.802 20.3135 184.441 19.9535C184.08 19.5934 183.877 19.105 183.876 18.5953V19.8742C183.877 20.3843 184.08 20.8732 184.441 21.2339C184.801 21.5945 185.29 21.7976 185.8 21.7987H202.466C202.976 21.7976 203.464 21.5945 203.825 21.2339C204.186 20.8732 204.389 20.3843 204.39 19.8742V18.5953C204.389 18.8489 204.338 19.0998 204.239 19.3336C204.141 19.5675 203.998 19.7796 203.818 19.958C203.638 20.1364 203.424 20.2775 203.189 20.3732C202.954 20.4689 202.703 20.5173 202.45 20.5157Z" fill="black"/>
<path d="M258.932 87.7921C258.932 87.7921 259.973 87.9736 260.142 87.1304C260.227 86.727 259.941 84.1368 259.614 81.5466C259.457 80.2717 259.287 79.0008 259.15 77.9841C258.985 76.7374 258.864 75.878 258.864 75.878L258.674 75.2486L257.553 71.4804L256.496 67.93L255.718 66.534L250.116 69.2614L246.631 75.285L247.712 75.9668L247.901 76.0878L249.89 78.1697L255.464 84.0198L257.973 86.6543L258.267 86.961L258.932 87.7921Z" fill="#FFE09C"/>
<path d="M254.528 64.1375C254.528 64.1375 248.389 67.0181 246.913 70.149C246.913 70.149 245.534 72.7835 245.36 74.1835C245.36 74.1835 244.957 75.4625 247.502 75.7772C247.502 75.7772 248.66 71.0769 252.132 69.0354L255.609 66.998L254.528 64.1375Z" fill="#E7C4C3"/>
<path d="M256.128 71.369C256.427 70.2516 255.903 69.14 254.956 68.8863C254.01 68.6325 253 69.3326 252.701 70.4501C252.401 71.5675 252.926 72.6791 253.872 72.9328C254.818 73.1866 255.828 72.4864 256.128 71.369Z" fill="#FF7F8E"/>
<path d="M255.462 78.6735C255.758 77.5603 255.234 76.4542 254.291 76.203C253.349 75.9517 252.344 76.6504 252.048 77.7635C251.751 78.8767 252.275 79.9828 253.218 80.234C254.161 80.4853 255.165 79.7866 255.462 78.6735Z" fill="#FF7F8E"/>
<path d="M249.89 78.1696C250.211 78.039 250.497 77.8337 250.724 77.5706C250.95 77.3075 251.111 76.9942 251.193 76.6567C251.491 75.5431 250.967 74.4336 250.023 74.1835C249.079 73.9333 248.075 74.6313 247.78 75.7449C247.757 75.8201 247.74 75.897 247.728 75.9748L247.917 76.0959L249.89 78.1696Z" fill="#FF7F8E"/>
<path d="M257.388 75.4786C257.609 75.5345 257.839 75.543 258.064 75.5033C258.288 75.4637 258.502 75.3769 258.691 75.2486L257.569 71.4803C257.235 71.6043 256.937 71.8087 256.7 72.0754C256.464 72.3421 256.297 72.6629 256.214 73.0094C255.92 74.1351 256.444 75.2284 257.388 75.4786Z" fill="#FF7F8E"/>
<path d="M258.037 81.9984C258.319 82.065 258.614 82.0584 258.892 81.9794C259.171 81.9003 259.425 81.7513 259.63 81.5466C259.473 80.2716 259.304 79.0008 259.166 77.984H259.114C258.17 77.7299 257.166 78.4319 256.867 79.5454C256.569 80.659 257.097 81.7483 258.037 81.9984Z" fill="#FF7F8E"/>
<path d="M257.973 86.6422C258.088 86.4468 258.177 86.2364 258.235 86.0169C258.533 84.9034 258.009 83.7979 257.065 83.5477C256.779 83.4785 256.481 83.4845 256.198 83.5651C255.915 83.6457 255.658 83.7982 255.452 84.0077L257.973 86.6422Z" fill="#FF7F8E"/>
<path d="M255.202 69.7697L255.847 69.9431C255.593 70.41 255.443 70.926 255.407 71.4561C255.406 71.491 255.406 71.5261 255.407 71.561C255.492 72.2267 254.762 71.3875 254.762 71.3875C254.762 71.3875 254.887 70.0198 255.202 69.7697Z" fill="#94CC79"/>
<path d="M252.261 73.9333L252.911 74.1068C252.655 74.5713 252.505 75.0866 252.471 75.6158C252.469 75.6507 252.469 75.6857 252.471 75.7207C252.556 76.3864 251.826 75.5472 251.826 75.5472C251.826 75.5472 251.947 74.1795 252.261 73.9333Z" fill="#94CC79"/>
<path d="M254.27 75.3091L254.915 75.4786C254.662 75.9454 254.512 76.4615 254.476 76.9916C254.474 77.0265 254.474 77.0615 254.476 77.0965C254.564 77.7622 253.83 76.923 253.83 76.923C253.83 76.923 253.963 75.5553 254.27 75.3091Z" fill="#94CC79"/>
<path d="M256.851 78.7829L257.501 78.9524C257.245 79.4184 257.095 79.9349 257.061 80.4653C257.059 80.5002 257.059 80.5353 257.061 80.5702C257.146 81.2359 256.416 80.3967 256.416 80.3967C256.416 80.3967 256.541 79.029 256.851 78.7829Z" fill="#94CC79"/>
<path d="M258.461 84.4999L259.106 84.6734C258.853 85.1389 258.703 85.6536 258.666 86.1823C258.664 86.2172 258.664 86.2523 258.666 86.2872C258.755 86.9529 258.021 86.1177 258.021 86.1177C258.021 86.1177 258.146 84.746 258.461 84.4999Z" fill="#94CC79"/>
<path d="M254.96 80.5016L255.605 80.6751C255.35 81.1467 255.203 81.6689 255.173 82.2042C255.171 82.2391 255.171 82.2741 255.173 82.3091C255.258 82.9748 254.528 82.1396 254.528 82.1396C254.528 82.1396 254.649 80.7477 254.96 80.5016Z" fill="#94CC79"/>
<path d="M256.525 64.67C256.525 64.67 255.601 62.5761 254.508 64.1374C254.6 65.4051 255.017 66.6278 255.718 67.6878C255.718 67.6878 259.062 76.7858 258.783 78.1777C258.783 78.1777 260.102 86.965 259.775 87.4572C259.775 87.4572 260.139 88.0785 260.397 85.7425C260.655 83.4065 259.521 76.5437 259.521 76.5437L257.864 69.4106L256.755 66.9899L256.525 64.67Z" fill="#E7C4C3"/>
<path opacity="0.2" d="M256.525 64.67C256.525 64.67 255.601 62.5761 254.508 64.1374C254.6 65.4051 255.017 66.6278 255.718 67.6878C255.718 67.6878 259.062 76.7858 258.783 78.1777C258.783 78.1777 260.102 86.965 259.775 87.4572C259.775 87.4572 260.139 88.0785 260.397 85.7425C260.655 83.4065 259.521 76.5437 259.521 76.5437L257.864 69.4106L256.755 66.9899L256.525 64.67Z" fill="white"/>
<path d="M245.433 68.1397C245.433 68.1397 247.091 72.9166 248.607 71.6458L247.397 65.4043L245.433 68.1397Z" fill="#FBBEBE"/>
<path d="M132.056 87.7598C132.056 87.7598 146.677 112.399 150.093 115.691C150.093 115.691 164.702 130.861 157.276 129.812C156.732 129.735 146.039 120.694 145.414 119.209C144.789 117.724 124.574 91.4554 124.574 91.4554L127.458 88.8007L132.056 87.7598Z" fill="#A0616A"/>
<path opacity="0.1" d="M132.056 87.7598C132.056 87.7598 146.677 112.399 150.093 115.691C150.093 115.691 164.702 130.861 157.276 129.812C156.732 129.735 146.039 120.694 145.414 119.209C144.789 117.724 124.574 91.4554 124.574 91.4554L127.458 88.8007L132.056 87.7598Z" fill="black"/>
<path d="M145.426 168.229C145.426 168.229 140.748 174.079 142.7 176.419C144.652 178.759 154.376 183.234 157.514 183.048C160.83 182.854 171.941 183.452 172.333 178.368C172.333 178.368 173.111 176.028 162.975 175.637C152.839 175.245 155.953 164.715 155.953 164.715L145.426 168.229Z" fill="#2F2E41"/>
<path d="M89.6693 118.693C89.6693 118.693 84.9906 134.682 99.0266 137.413L114.232 136.634C114.232 136.634 135.678 132.342 141.53 135.464C141.53 135.464 143.869 135.868 143.087 138.975C142.304 142.081 144.257 163.158 144.257 163.158V170.178C144.257 170.178 157.514 170.178 159.075 168.616C159.075 168.616 157.905 162.375 159.075 157.32C160.245 152.264 157.127 136.255 157.127 136.255L156.816 126.649C156.793 125.459 156.452 124.296 155.831 123.28C155.209 122.265 154.328 121.434 153.279 120.871C152.542 120.481 151.722 120.272 150.887 120.262C150.887 120.262 124.372 115.973 115.015 116.752C105.657 117.531 89.6693 118.693 89.6693 118.693Z" fill="#605D82"/>
<path d="M115.793 67.5951C115.793 67.5951 122.811 75.7852 123.59 78.5166C124.368 81.248 132.963 88.2561 132.963 88.2561C132.963 88.2561 126.724 92.9362 127.893 95.2762C129.063 97.6163 119.706 87.4774 119.706 87.4774L108.763 71.4965L115.793 67.5951Z" fill="#BC412B"/>
<path opacity="0.1" d="M115.793 67.5951C115.793 67.5951 122.811 75.7852 123.59 78.5166C124.368 81.248 132.963 88.2561 132.963 88.2561C132.963 88.2561 126.724 92.9362 127.893 95.2762C129.063 97.6163 119.706 87.4774 119.706 87.4774L108.763 71.4965L115.793 67.5951Z" fill="black"/>
<path d="M120.46 58.2349C120.46 58.2349 116.951 69.5316 116.951 73.8365C116.951 78.1414 102.132 72.6665 102.524 70.3264C102.915 67.9864 111.102 59.4049 111.494 55.8948C111.885 52.3847 120.46 58.2349 120.46 58.2349Z" fill="#A0616A"/>
<path opacity="0.1" d="M108.763 66.0337C108.763 66.0337 95.1143 62.5236 93.1662 82.418C91.2181 102.312 94.7231 104.648 88.8747 116.74C83.0264 128.832 128.647 118.301 128.647 118.301C128.647 118.301 126.308 115.57 118.899 116.74L115.39 106.21C115.39 106.21 114.22 101.53 120.851 101.53C127.482 101.53 124.36 87.8768 124.36 87.8768C124.36 87.8768 120.851 76.1765 118.899 75.0065C116.947 73.8365 113.454 66.8164 108.763 66.0337Z" fill="black"/>
<path d="M108.763 65.259C108.763 65.259 95.1143 61.7489 93.1662 81.6393C91.2181 101.53 94.7231 103.874 88.8747 115.965C83.0264 128.057 128.647 117.527 128.647 117.527C128.647 117.527 126.308 114.795 118.899 115.965L115.39 105.435C115.39 105.435 114.232 100.763 120.863 100.763C127.494 100.763 124.372 87.1102 124.372 87.1102C124.372 87.1102 120.863 75.41 118.911 74.2399C116.959 73.0699 113.454 66.0336 108.763 65.259Z" fill="#BC412B"/>
<path d="M116.963 65.255C124.069 65.255 129.829 59.4928 129.829 52.3848C129.829 45.2767 124.069 39.5145 116.963 39.5145C109.857 39.5145 104.097 45.2767 104.097 52.3848C104.097 59.4928 109.857 65.255 116.963 65.255Z" fill="#A0616A"/>
<path d="M114.478 118.285L146.814 137.619L176.898 109.579L141.034 97.0837L115.225 114.658L114.478 118.285Z" fill="#DADAE5"/>
<path d="M152.638 64.1656L142.575 94.1021L175.938 103.7L190.18 63.2175L152.638 64.1656Z" fill="#DADAE5"/>
<path opacity="0.03" d="M149.952 61.9547L152.682 64.4521L190.225 63.504L191.088 61.051L149.952 61.9547Z" fill="black"/>
<path opacity="0.03" d="M140.042 92.3794L149.952 61.9548L152.682 64.4522L142.873 93.6382L140.042 92.3794Z" fill="black"/>
<path d="M149.907 61.6683L152.638 64.1657L190.18 63.2175L191.043 60.7645L149.907 61.6683Z" fill="#EFF0F4"/>
<path d="M139.997 92.0969L149.907 61.6683L152.638 64.1657L142.829 93.3517L139.997 92.0969Z" fill="#EFF0F4"/>
<path opacity="0.03" d="M149.907 61.6683L154.082 65.5737L191.628 64.6256L191.043 60.7645L149.907 61.6683Z" fill="black"/>
<path opacity="0.03" d="M139.997 92.0969L149.907 61.6683L154.082 65.5737L144.273 94.7598L139.997 92.0969Z" fill="black"/>
<path opacity="0.03" d="M140.062 92.5246L140.973 98.3142L177.06 110.846L176.007 104.128L140.062 92.5246Z" fill="black"/>
<path opacity="0.03" d="M113.385 111.552L140.062 92.5246L141.227 98.3102L115.023 117.805L113.385 111.552Z" fill="black"/>
<path d="M139.997 92.0969L140.78 97.0877L176.866 109.619L175.938 103.7L139.997 92.0969Z" fill="#EFF0F4"/>
<path d="M113.317 111.12L139.997 92.0969L141.034 97.0836L114.829 116.579L113.317 111.12Z" fill="#EFF0F4"/>
<path opacity="0.03" d="M139.997 92.0969L140.78 97.0877L176.866 109.619L175.938 103.7L139.997 92.0969Z" fill="black"/>
<path opacity="0.03" d="M113.317 111.12L139.997 92.0969L141.034 97.0836L114.829 116.579L113.317 111.12Z" fill="black"/>
<path d="M113.317 111.12L114.523 118.313L146.769 137.587L145.975 130.183L113.317 111.12Z" fill="#CCCAD6"/>
<path d="M128.01 109.982C128.01 109.982 127.45 111.051 128.305 111.544C128.708 111.778 131.624 112.35 134.552 112.899C135.988 113.165 137.428 113.424 138.586 113.625C139.997 113.876 140.973 114.029 140.973 114.029H141.716L146.201 114.114L150.419 114.194L152.206 113.827L151.178 106.815L145.838 100.945L144.72 101.889L144.531 102.05L141.595 103.478L133.31 107.513L129.583 109.329L129.148 109.542L128.01 109.982Z" fill="#FFE09C"/>
<path d="M155.223 113.367C155.223 113.367 154.219 105.701 151.323 103.014C151.323 103.014 148.943 100.594 147.479 99.932C147.479 99.932 146.233 99.0485 145.007 101.711C145.007 101.711 149.714 104.592 150.73 109.074L151.742 113.557L155.223 113.367Z" fill="#E7C4C3"/>
<path d="M149.563 110.631C150.162 109.692 149.75 108.357 148.643 107.65C147.535 106.942 146.151 107.129 145.552 108.068C144.952 109.007 145.364 110.342 146.471 111.05C147.579 111.757 148.963 111.57 149.563 110.631Z" fill="#FF7F8E"/>
<path d="M142.205 108.966C142.805 108.027 142.393 106.692 141.285 105.985C140.178 105.277 138.794 105.464 138.194 106.403C137.595 107.342 138.007 108.677 139.114 109.385C140.222 110.092 141.606 109.905 142.205 108.966Z" fill="#FF7F8E"/>
<path d="M141.595 103.482C141.626 103.879 141.752 104.263 141.963 104.601C142.173 104.938 142.462 105.22 142.805 105.423C143.91 106.129 145.293 105.944 145.89 105.02C146.487 104.096 146.08 102.748 144.97 102.042C144.895 101.994 144.817 101.949 144.736 101.909L144.547 102.07L141.595 103.482Z" fill="#FF7F8E"/>
<path d="M141.917 112.556C141.78 112.777 141.691 113.025 141.655 113.283C141.62 113.541 141.639 113.803 141.711 114.053L146.197 114.138C146.179 113.727 146.059 113.327 145.848 112.975C145.637 112.623 145.341 112.329 144.987 112.12C143.898 111.431 142.514 111.62 141.917 112.556Z" fill="#FF7F8E"/>
<path d="M134.609 111.011C134.438 111.294 134.343 111.617 134.334 111.948C134.324 112.278 134.399 112.606 134.552 112.899C135.988 113.165 137.428 113.424 138.586 113.625L138.622 113.573C139.219 112.637 138.807 111.301 137.702 110.595C136.597 109.889 135.21 110.075 134.609 111.011Z" fill="#FF7F8E"/>
<path d="M129.583 109.337C129.756 109.529 129.954 109.698 130.172 109.837C131.277 110.543 132.661 110.357 133.258 109.433C133.429 109.149 133.524 108.825 133.534 108.492C133.543 108.16 133.466 107.831 133.31 107.537L129.583 109.337Z" fill="#FF7F8E"/>
<path d="M148.871 112.153L148.467 112.794C148.049 112.358 147.542 112.018 146.979 111.798L146.862 111.769C146.108 111.632 147.265 111.128 147.265 111.128C147.265 111.128 148.713 111.729 148.871 112.153Z" fill="#94CC79"/>
<path d="M145.366 107.521L144.962 108.167C144.545 107.729 144.037 107.387 143.474 107.166L143.357 107.138C142.607 107.005 143.76 106.496 143.76 106.496C143.76 106.496 145.208 107.097 145.366 107.521Z" fill="#94CC79"/>
<path d="M143.18 109.236L142.776 109.877C142.358 109.441 141.851 109.101 141.288 108.881L141.171 108.852C140.417 108.715 141.574 108.211 141.574 108.211C141.574 108.211 143.018 108.804 143.18 109.236Z" fill="#94CC79"/>
<path d="M138.513 110.85L138.11 111.495C137.692 111.057 137.184 110.716 136.621 110.495L136.504 110.466C135.75 110.333 136.908 109.825 136.908 109.825C136.908 109.825 138.352 110.41 138.513 110.85Z" fill="#94CC79"/>
<path d="M131.753 110.608L131.35 111.253C130.931 110.815 130.422 110.474 129.857 110.252L129.741 110.224C128.99 110.091 130.144 109.583 130.144 109.583C130.144 109.583 131.588 110.18 131.753 110.608Z" fill="#94CC79"/>
<path d="M137.299 108.187L136.896 108.828C136.478 108.39 135.97 108.049 135.407 107.828L135.29 107.799C134.536 107.666 135.694 107.158 135.694 107.158C135.694 107.158 137.138 107.759 137.299 108.187Z" fill="#94CC79"/>
<path d="M153.937 115.356C153.937 115.356 156.53 115.074 155.207 113.367C153.802 113.024 152.332 113.049 150.94 113.44C150.94 113.44 139.901 113.932 138.469 113.141C138.469 113.141 128.466 111.527 128.063 111.019C128.063 111.019 127.256 111.197 129.708 112.286C132.161 113.375 140.005 114.513 140.005 114.513L148.326 115.175L151.319 114.803L153.937 115.356Z" fill="#E7C4C3"/>
<path opacity="0.2" d="M153.937 115.356C153.937 115.356 156.53 115.074 155.207 113.367C153.802 113.024 152.332 113.049 150.94 113.44C150.94 113.44 139.901 113.932 138.469 113.141C138.469 113.141 128.466 111.527 128.063 111.019C128.063 111.019 127.256 111.197 129.708 112.286C132.161 113.375 140.005 114.513 140.005 114.513L148.326 115.175L151.319 114.803L153.937 115.356Z" fill="white"/>
<path d="M146.072 111.398C145.95 111.776 145.921 112.177 145.986 112.567C146.052 112.958 146.209 113.328 146.447 113.646C147.205 114.715 148.556 115.062 149.468 114.42C150.379 113.779 150.496 112.403 149.734 111.314C149.681 111.241 149.625 111.168 149.568 111.1L149.326 111.18L146.072 111.398Z" fill="#FF7F8E"/>
<path d="M145.975 130.183L175.938 103.7L176.858 109.546L146.769 137.587L145.975 130.183Z" fill="#CCCAD6"/>
<path d="M179.827 105.209L175.938 103.7L191.043 60.7645L193.923 62.7979L179.827 105.209Z" fill="#CCCAD6"/>
<g opacity="0.1">
<path opacity="0.1" d="M155.51 167.789C155.54 166.751 155.69 165.719 155.957 164.715L155.76 164.784C155.566 165.773 155.482 166.781 155.51 167.789Z" fill="white"/>
<path opacity="0.1" d="M157.514 182.261C154.376 182.447 144.648 177.969 142.7 175.629C142.443 175.313 142.285 174.928 142.248 174.523C142.19 174.852 142.201 175.189 142.278 175.514C142.356 175.839 142.499 176.144 142.7 176.411C144.648 178.751 154.376 183.226 157.514 183.04C160.83 182.846 171.941 183.443 172.333 178.36C172.36 178.223 172.341 178.082 172.28 177.956C171.385 182.628 160.745 182.08 157.514 182.261Z" fill="white"/>
</g>
<path d="M168.908 87.6025C168.908 87.6025 169.602 86.7956 168.973 86.2146C168.67 85.9322 166.299 84.8509 163.911 83.7938C162.737 83.2774 161.556 82.7691 160.616 82.3656L158.66 81.5304L158.026 81.3691L154.215 80.3967L150.629 79.4809L149.016 79.4365L148.475 85.6457L151.859 91.7298L152.997 91.1489L153.194 91.048L155.99 90.4186L163.887 88.6595L167.432 87.8526L167.835 87.7598L168.908 87.6025Z" fill="#FFE09C"/>
<path d="M146.354 79.2468C146.354 79.2468 145.672 85.9926 147.604 88.8692C147.604 88.8692 149.153 91.4029 150.266 92.2744C150.266 92.2744 151.154 93.275 152.739 91.2496C152.739 91.2496 149.294 87.8445 149.33 83.8139L149.363 79.7794L146.354 79.2468Z" fill="#E7C4C3"/>
<path d="M153.546 85.7456C154.245 85.0654 154.162 83.8443 153.359 83.0183C152.556 82.1922 151.338 82.0741 150.639 82.7544C149.939 83.4347 150.023 84.6558 150.826 85.4818C151.628 86.3078 152.846 86.4259 153.546 85.7456Z" fill="#FF7F8E"/>
<path d="M159.495 88.6412C160.195 87.9609 160.111 86.7398 159.309 85.9138C158.506 85.0878 157.288 84.9697 156.588 85.6499C155.889 86.3302 155.972 87.5513 156.775 88.3774C157.578 89.2034 158.796 89.3215 159.495 88.6412Z" fill="#FF7F8E"/>
<path d="M156.006 90.4226C156.059 90.0793 156.03 89.7281 155.921 89.3983C155.811 89.0684 155.625 88.7695 155.376 88.5264C154.57 87.7195 153.36 87.5823 152.654 88.2641C151.948 88.946 152.041 90.1644 152.844 90.9915C152.897 91.0484 152.954 91.1022 153.013 91.1529L153.211 91.052L156.006 90.4226Z" fill="#FF7F8E"/>
<path d="M157.567 82.6077C157.728 82.4464 157.854 82.2526 157.936 82.0391C158.017 81.8255 158.052 81.5972 158.038 81.3691L154.227 80.3967C154.161 80.7473 154.183 81.1086 154.291 81.4486C154.398 81.7886 154.589 82.0967 154.844 82.3454C155.635 83.1765 156.853 83.2935 157.567 82.6077Z" fill="#FF7F8E"/>
<path d="M163.479 85.3996C163.684 85.1902 163.831 84.9317 163.906 84.6491C163.982 84.3665 163.983 84.0692 163.911 83.7858C162.737 83.2694 161.556 82.761 160.616 82.3575L160.571 82.3939C159.874 83.0757 159.958 84.2982 160.761 85.1253C161.564 85.9523 162.782 86.0815 163.479 85.3996Z" fill="#FF7F8E"/>
<path d="M167.432 87.8526C167.325 87.6521 167.189 87.4686 167.029 87.3079C166.222 86.4808 165.012 86.3638 164.31 87.0457C164.105 87.2544 163.958 87.513 163.883 87.796C163.808 88.0789 163.808 88.3765 163.883 88.6595L167.432 87.8526Z" fill="#FF7F8E"/>
<path d="M151.517 81.5587L151.997 81.0947C152.267 81.551 152.633 81.9432 153.069 82.2446L153.162 82.293C153.779 82.5593 152.682 82.757 152.682 82.757C152.682 82.757 151.585 81.9541 151.517 81.5587Z" fill="#94CC79"/>
<path d="M153.598 86.2388L154.074 85.7708C154.344 86.2285 154.71 86.6222 155.147 86.9246L155.239 86.969C155.856 87.2393 154.759 87.437 154.759 87.437C154.759 87.437 153.646 86.6099 153.598 86.2388Z" fill="#94CC79"/>
<path d="M155.804 85.2019L156.284 84.7339C156.554 85.1917 156.92 85.5854 157.357 85.8878L157.45 85.9322C158.067 86.2025 156.97 86.4002 156.97 86.4002C156.97 86.4002 155.856 85.5973 155.804 85.2019Z" fill="#94CC79"/>
<path d="M160.112 84.7662L160.592 84.2982C160.861 84.7551 161.225 85.1486 161.66 85.452L161.757 85.5005C162.37 85.7668 161.277 85.9644 161.277 85.9644C161.277 85.9644 160.164 85.1616 160.112 84.7662Z" fill="#94CC79"/>
<path d="M165.843 86.3235L166.323 85.8555C166.591 86.3136 166.955 86.7075 167.392 87.0094L167.489 87.0537C168.102 87.3241 167.009 87.5218 167.009 87.5218C167.009 87.5218 165.895 86.7148 165.843 86.3235Z" fill="#94CC79"/>
<path d="M160.616 87.2716L161.096 86.8076C161.366 87.2638 161.732 87.6561 162.169 87.9575C162.197 87.9776 162.228 87.9938 162.261 88.0059C162.878 88.2722 161.781 88.4739 161.781 88.4739C161.781 88.4739 160.668 87.667 160.616 87.2716Z" fill="#94CC79"/>
<path d="M147.838 77.8025C147.838 77.8025 145.567 77.5241 146.354 79.2469C147.484 79.8243 148.744 80.1022 150.012 80.0538C150.012 80.0538 159.535 81.8532 160.6 82.8134C160.6 82.8134 168.816 86.1944 169.07 86.7189C169.07 86.7189 169.792 86.7189 167.92 85.3028C166.049 83.8866 159.583 81.3247 159.583 81.3247L152.614 79.0855L149.984 78.799L147.838 77.8025Z" fill="#E7C4C3"/>
<path opacity="0.2" d="M147.838 77.8025C147.838 77.8025 145.567 77.5241 146.354 79.2469C147.484 79.8243 148.744 80.1022 150.012 80.0538C150.012 80.0538 159.535 81.8532 160.6 82.8134C160.6 82.8134 168.816 86.1944 169.07 86.7189C169.07 86.7189 169.792 86.7189 167.92 85.3028C166.049 83.8866 159.583 81.3247 159.583 81.3247L152.614 79.0855L149.984 78.799L147.838 77.8025Z" fill="white"/>
<path d="M136.226 87.199C137.384 86.5909 138.433 85.7931 139.328 84.8388C139.731 84.3627 140.07 83.8261 140.485 83.3581C141.533 82.2389 142.893 81.4626 144.39 81.131C145.874 80.8049 147.392 80.6573 148.911 80.6912C149.928 80.6264 150.948 80.7495 151.92 81.0543C152.406 81.2134 152.844 81.4935 153.193 81.8682C153.541 82.2429 153.789 82.7 153.912 83.1967C154.134 84.4071 153.344 85.5811 152.396 86.3598C151.513 87.0802 150.475 87.5844 149.363 87.8324C148.456 87.9893 147.542 88.0956 146.624 88.1511C141.228 88.716 136.412 91.6531 131.701 94.328C127.546 96.6802 125.191 96.5713 120.879 98.6128C120.71 97.3217 118.758 98.3223 118.786 97.0191C118.81 96.0468 118.859 94.5621 119.778 93.9891C120.847 93.3234 122.602 93.1822 123.812 92.7788C126.591 91.867 129.307 90.7684 131.939 89.4906C133.393 88.7778 134.823 88.014 136.226 87.199Z" fill="#A0616A"/>
<path opacity="0.1" d="M100.588 83.588L121.266 102.308C121.266 102.308 125.167 94.5096 126.336 94.5096C127.506 94.5096 112.3 71.5126 112.3 71.5126C112.3 71.5126 108.4 66.8325 106.061 69.1725C103.721 71.5126 96.6873 69.9351 100.588 83.588Z" fill="black"/>
<path d="M100.196 82.8094L120.863 101.53C120.863 101.53 124.763 93.7269 125.933 93.7269C127.103 93.7269 111.893 70.7299 111.893 70.7299C111.893 70.7299 107.993 66.0458 105.653 68.3858C103.314 70.7259 96.2961 69.1564 100.196 82.8094Z" fill="#BC412B"/>
<path d="M134.222 49.8107C134.673 49.3086 135.039 48.7363 135.307 48.1162C137.089 44.0817 134.262 39.0142 129.434 37.6264C127.014 36.9203 124.304 37.0615 121.888 36.3111C119.944 35.7099 118.306 34.5722 116.523 33.6846C113.173 32.0335 109.466 31.2379 105.734 31.3687C102.084 31.4979 98.1151 32.7808 96.6187 35.601C94.4327 39.7082 98.4539 44.8805 96.0178 48.8787C94.227 51.8159 89.8831 52.6833 86.2813 53.9583C82.5524 55.2483 79.1575 57.3528 76.3431 60.119C73.5198 62.9432 71.5031 66.8164 72.9228 70.3184C73.7497 72.372 75.6171 73.9778 77.1014 75.7489C79.5777 78.6552 81.0262 82.2975 81.2224 86.1111C81.4186 89.9247 80.3514 93.6965 78.1864 96.8416C77.4926 97.8382 76.6819 98.8105 76.3955 99.9402C75.7099 102.635 78.4768 105.346 81.6752 105.871C84.8736 106.395 88.1931 105.201 90.6817 103.438C92.9792 101.854 94.8284 99.7024 96.05 97.1926C99.0065 90.9229 96.9293 83.8786 96.6349 77.1288C96.5986 76.342 96.6349 75.4867 97.1874 74.8694C98.0425 73.9455 99.6558 73.9697 101.035 73.8487C104.605 73.534 107.892 71.5328 109.404 68.7732C112.296 63.4637 108.928 56.0441 113.982 52.0499C120.343 47.0229 129.499 54.9709 134.222 49.8107Z" fill="#3F3D56"/>
<path opacity="0.1" d="M129.434 37.6102H129.394C131.281 39.7969 131.991 42.7502 130.87 45.3C130.603 45.9201 130.236 46.4924 129.785 46.9946C125.062 52.1548 115.906 44.2067 109.546 49.2337C104.492 53.228 107.86 60.6475 104.968 65.957C103.467 68.7166 100.168 70.7178 96.5986 71.0325C95.2192 71.1535 93.6058 71.1293 92.7507 72.0532C92.182 72.6705 92.1619 73.5258 92.1982 74.3126C92.4926 81.0624 94.5698 88.1068 91.6134 94.3765C90.3917 96.8862 88.5425 99.0376 86.245 100.622C83.7564 102.377 80.441 103.587 77.2385 103.063L77.0167 103.014C77.5636 103.779 78.2572 104.426 79.057 104.92C79.8569 105.413 80.7469 105.742 81.6752 105.887C84.8777 106.408 88.1729 105.197 90.6817 103.438C92.9792 101.854 94.8284 99.7023 96.05 97.1926C99.0065 90.9229 96.9293 83.8785 96.6349 77.1287C96.5986 76.342 96.6349 75.4866 97.1874 74.8694C98.0425 73.9454 99.6558 73.9696 101.035 73.8486C104.605 73.5339 107.892 71.5328 109.404 68.7731C112.296 63.4636 108.928 56.0441 113.982 52.0499C120.343 47.0228 129.499 54.9709 134.222 49.8107C134.673 49.3086 135.039 48.7362 135.307 48.1162C137.089 44.0695 134.262 39.0344 129.434 37.6102Z" fill="black"/>
</svg>
